<svg width="114" height="109" viewBox="0 0 114 109" fill="none" xmlns="http://www.w3.org/2000/svg">
<path d="M0.327545 0.673325L10.3869 95.6068L56.8483 108.232L103.381 95.8235L113.98 0.938175L0.327545 0.673325ZM92.9415 20.0726L91.4886 31.4114L57.3295 43.1536L57.2406 43.1774L90.2414 43.2543L86.3529 78.3988L57.269 85.2131L28.047 78.1431L26.2032 60.4181L40.6762 60.4518L41.5971 69.638L57.1561 72.8635L73.3563 69.2085L74.4934 54.4399L25.2737 54.2053L25.2738 54.1813L25.2145 54.2051L24.1806 43.1003L57.3909 31.9794L59.3165 31.3364L22.9417 31.2517L21.2573 19.9055L92.9415 20.0726Z" fill="#0F0E0E"/>
</svg>
