<svg width="70" height="70" viewBox="0 0 70 70" fill="none" xmlns="http://www.w3.org/2000/svg">
<path d="M35.0342 5.83331C18.975 5.83331 5.90184 18.8952 5.89601 34.9544C5.89309 40.0877 7.23763 45.0991 9.78679 49.5149L5.83334 64.1666L21.0946 60.5607C25.35 62.8824 30.1404 64.1011 35.0171 64.104H35.0285C51.0847 64.104 64.1522 51.0391 64.161 34.9829C64.1668 27.1983 61.1397 19.8792 55.6388 14.3725C50.138 8.86879 42.8275 5.83623 35.0342 5.83331ZM35.0285 11.6666C41.2585 11.6696 47.1132 14.0986 51.5145 18.4969C55.9157 22.9011 58.3335 28.753 58.3276 34.9772C58.3218 47.8222 47.8736 58.2706 35.0228 58.2706C31.1349 58.2677 27.2837 57.2915 23.8916 55.4394L21.9263 54.3685L19.7559 54.8812L14.0137 56.237L15.415 51.0303L16.0474 48.6946L14.8397 46.5983C12.8039 43.0749 11.7264 39.0465 11.7293 34.9544C11.7352 22.1152 22.1864 11.6666 35.0285 11.6666ZM24.7233 21.5104C24.2362 21.5104 23.4487 21.6927 22.7808 22.4219C22.1129 23.1481 20.2287 24.9071 20.2287 28.4887C20.2287 32.0704 22.8377 35.5326 23.2023 36.0197C23.564 36.5038 28.2384 44.0861 35.638 47.0027C41.7864 49.4265 43.0351 48.9482 44.3709 48.8257C45.7068 48.7061 48.6805 47.0682 49.2871 45.3678C49.8938 43.6674 49.8952 42.2047 49.7144 41.9043C49.5335 41.6009 49.0479 41.4201 48.3187 41.0555C47.5924 40.6909 44.0135 38.9335 43.3456 38.6914C42.6776 38.4493 42.1891 38.3268 41.7049 39.056C41.2208 39.7851 39.8293 41.4201 39.4035 41.9043C38.9777 42.3914 38.5547 42.4568 37.8255 42.0923C37.0964 41.7248 34.7519 40.9541 31.9694 38.4749C29.8052 36.547 28.345 34.1683 27.9191 33.4391C27.4962 32.7129 27.8792 32.314 28.2438 31.9523C28.5705 31.6256 28.9673 31.1021 29.3319 30.6762C29.6935 30.2504 29.819 29.947 30.061 29.4629C30.3031 28.9787 30.1792 28.5514 29.9984 28.1868C29.8176 27.8222 28.4014 24.2273 27.7539 22.7864C27.2085 21.576 26.6325 21.5479 26.1133 21.5275C25.6904 21.51 25.2075 21.5104 24.7233 21.5104Z" fill="white"/>
</svg>
