<svg width="114" height="103" viewBox="0 0 114 103" fill="none" xmlns="http://www.w3.org/2000/svg">
<path d="M101.372 0.0695877H13.0235C6.3722 0.0695877 0.975891 4.98108 0.975891 11.0348V91.4462C0.975891 97.4999 6.3722 102.411 13.0235 102.411H101.372C108.024 102.411 113.42 97.4999 113.42 91.4462V11.0348C113.42 4.98108 108.024 0.0695877 101.372 0.0695877ZM62.1675 79.887C62.1675 89.8471 55.7422 94.3931 46.3802 94.3931C37.9218 94.3931 33.0275 90.4182 30.5176 85.5981L39.1266 80.8693C40.7831 83.5421 42.289 85.8037 45.9284 85.8037C49.3921 85.8037 51.6008 84.5701 51.6008 79.75V47.06H62.1675V79.887ZM87.1663 94.3931C77.3525 94.3931 71.0024 90.1441 67.9152 84.5701L76.5242 80.0469C78.7832 83.405 81.7449 85.8951 86.9404 85.8951C91.3076 85.8951 94.1187 83.9076 94.1187 81.1435C94.1187 77.8539 91.2574 76.6889 86.4133 74.7471L83.7779 73.7191C76.1478 70.7722 71.1028 67.0486 71.1028 59.2131C71.1028 51.9943 77.1517 46.5117 86.5639 46.5117C93.2905 46.5117 98.1095 48.6362 101.573 54.2102L93.3407 59.0075C91.5335 56.0606 89.5758 54.8955 86.5388 54.8955C83.4516 54.8955 81.4939 56.6774 81.4939 59.0075C81.4939 61.8858 83.4516 63.0509 87.9945 64.8556L90.63 65.8836C99.6154 69.3787 104.66 72.9653 104.66 81.0064C104.66 89.6415 97.1808 94.3931 87.1663 94.3931Z" fill="black"/>
</svg>
