<svg width="106" height="102" viewBox="0 0 106 102" fill="none" xmlns="http://www.w3.org/2000/svg">
<path d="M84.8182 28.7141C94.8595 28.7141 103 36.3893 103 45.8568C103 55.3243 94.8595 62.9996 84.8182 62.9996L25.7273 63C13.1754 63 3 53.4052 3 41.5707C3 30.2132 12.373 20.9203 24.2225 20.1891C29.319 10.0287 40.288 3 53 3C69.0305 3 82.2941 14.1771 84.4986 28.7167C84.6055 28.715 84.7109 28.7141 84.8182 28.7141Z" fill="#7FB4DA" stroke="#7FB4DA" stroke-width="5" stroke-linecap="round" stroke-linejoin="round"/>
<path d="M19.8017 95.126C18.9257 95.126 18.1337 94.976 17.4257 94.676C16.7297 94.376 16.1777 93.944 15.7697 93.38C15.3617 92.816 15.1517 92.15 15.1397 91.382H17.8397C17.8757 91.898 18.0557 92.306 18.3797 92.606C18.7157 92.906 19.1717 93.056 19.7477 93.056C20.3357 93.056 20.7977 92.918 21.1337 92.642C21.4697 92.354 21.6377 91.982 21.6377 91.526C21.6377 91.154 21.5237 90.848 21.2957 90.608C21.0677 90.368 20.7797 90.182 20.4317 90.05C20.0957 89.906 19.6277 89.75 19.0277 89.582C18.2117 89.342 17.5457 89.108 17.0297 88.88C16.5257 88.64 16.0877 88.286 15.7157 87.818C15.3557 87.338 15.1757 86.702 15.1757 85.91C15.1757 85.166 15.3617 84.518 15.7337 83.966C16.1057 83.414 16.6277 82.994 17.2997 82.706C17.9717 82.406 18.7397 82.256 19.6037 82.256C20.8997 82.256 21.9497 82.574 22.7537 83.21C23.5697 83.834 24.0197 84.71 24.1037 85.838H21.3317C21.3077 85.406 21.1217 85.052 20.7737 84.776C20.4377 84.488 19.9877 84.344 19.4237 84.344C18.9317 84.344 18.5357 84.47 18.2357 84.722C17.9477 84.974 17.8037 85.34 17.8037 85.82C17.8037 86.156 17.9117 86.438 18.1277 86.666C18.3557 86.882 18.6317 87.062 18.9557 87.206C19.2917 87.338 19.7597 87.494 20.3597 87.674C21.1757 87.914 21.8417 88.154 22.3577 88.394C22.8737 88.634 23.3177 88.994 23.6897 89.474C24.0617 89.954 24.2477 90.584 24.2477 91.364C24.2477 92.036 24.0737 92.66 23.7257 93.236C23.3777 93.812 22.8677 94.274 22.1957 94.622C21.5237 94.958 20.7257 95.126 19.8017 95.126ZM32.3364 95L28.9524 90.752V95H26.4324V81.68H28.9524V89.258L32.3004 85.028H35.5764L31.1844 90.032L35.6124 95H32.3364ZM46.4841 85.028L40.3101 99.716H37.6281L39.7881 94.748L35.7921 85.028H38.6181L41.1921 91.994L43.8021 85.028H46.4841ZM54.9706 88.556C55.6786 88.688 56.2606 89.042 56.7166 89.618C57.1726 90.194 57.4006 90.854 57.4006 91.598C57.4006 92.27 57.2326 92.864 56.8966 93.38C56.5726 93.884 56.0986 94.28 55.4746 94.568C54.8506 94.856 54.1126 95 53.2606 95H47.8426V82.436H53.0266C53.8786 82.436 54.6106 82.574 55.2226 82.85C55.8466 83.126 56.3146 83.51 56.6266 84.002C56.9506 84.494 57.1126 85.052 57.1126 85.676C57.1126 86.408 56.9146 87.02 56.5186 87.512C56.1346 88.004 55.6186 88.352 54.9706 88.556ZM50.3626 87.62H52.6666C53.2666 87.62 53.7286 87.488 54.0526 87.224C54.3766 86.948 54.5386 86.558 54.5386 86.054C54.5386 85.55 54.3766 85.16 54.0526 84.884C53.7286 84.608 53.2666 84.47 52.6666 84.47H50.3626V87.62ZM52.9006 92.948C53.5126 92.948 53.9866 92.804 54.3226 92.516C54.6706 92.228 54.8446 91.82 54.8446 91.292C54.8446 90.752 54.6646 90.332 54.3046 90.032C53.9446 89.72 53.4586 89.564 52.8466 89.564H50.3626V92.948H52.9006ZM58.761 89.978C58.761 88.97 58.959 88.076 59.355 87.296C59.763 86.516 60.309 85.916 60.993 85.496C61.689 85.076 62.463 84.866 63.315 84.866C64.059 84.866 64.707 85.016 65.259 85.316C65.823 85.616 66.273 85.994 66.609 86.45V85.028H69.147V95H66.609V93.542C66.285 94.01 65.835 94.4 65.259 94.712C64.695 95.012 64.041 95.162 63.297 95.162C62.457 95.162 61.689 94.946 60.993 94.514C60.309 94.082 59.763 93.476 59.355 92.696C58.959 91.904 58.761 90.998 58.761 89.978ZM66.609 90.014C66.609 89.402 66.489 88.88 66.249 88.448C66.009 88.004 65.685 87.668 65.277 87.44C64.869 87.2 64.431 87.08 63.963 87.08C63.495 87.08 63.063 87.194 62.667 87.422C62.271 87.65 61.947 87.986 61.695 88.43C61.455 88.862 61.335 89.378 61.335 89.978C61.335 90.578 61.455 91.106 61.695 91.562C61.947 92.006 62.271 92.348 62.667 92.588C63.075 92.828 63.507 92.948 63.963 92.948C64.431 92.948 64.869 92.834 65.277 92.606C65.685 92.366 66.009 92.03 66.249 91.598C66.489 91.154 66.609 90.626 66.609 90.014ZM77.1342 84.884C78.3222 84.884 79.2822 85.262 80.0142 86.018C80.7462 86.762 81.1122 87.806 81.1122 89.15V95H78.5922V89.492C78.5922 88.7 78.3942 88.094 77.9982 87.674C77.6022 87.242 77.0622 87.026 76.3782 87.026C75.6822 87.026 75.1302 87.242 74.7222 87.674C74.3262 88.094 74.1282 88.7 74.1282 89.492V95H71.6082V85.028H74.1282V86.27C74.4642 85.838 74.8902 85.502 75.4062 85.262C75.9342 85.01 76.5102 84.884 77.1342 84.884ZM89.4126 95L86.0286 90.752V95H83.5086V81.68H86.0286V89.258L89.3766 85.028H92.6526L88.2606 90.032L92.6886 95H89.4126Z" fill="#6695B8"/>
</svg>
