<svg width="144" height="136" viewBox="0 0 144 136" fill="none" xmlns="http://www.w3.org/2000/svg">
<path d="M117.619 44.2984C116.1 43.757 114.581 43.2457 113.062 42.7645C113.316 41.6516 113.541 40.5387 113.766 39.4258C117.225 21.4992 114.947 7.0918 107.269 2.33945C99.8719 -2.20234 87.8062 2.51992 75.6 13.8895C74.3906 15.0023 73.2094 16.1754 72.0844 17.3484C71.325 16.5664 70.5375 15.7844 69.75 15.0324C56.9531 2.88086 44.1281 -2.23242 36.45 2.55C29.0813 7.12188 26.8875 20.6871 29.9812 37.6512C30.2906 39.3355 30.6281 40.9898 31.0219 42.6742C29.2219 43.2156 27.45 43.8172 25.7906 44.4488C10.7719 50.0133 0 58.7961 0 67.8797C0 77.2641 11.475 86.6785 27.0844 92.3934C28.35 92.8445 29.6156 93.2957 30.9094 93.6867C30.4875 95.4914 30.1219 97.266 29.7844 99.1008C26.8313 115.794 29.1375 129.029 36.5063 133.57C44.1 138.262 56.8687 133.45 69.3 121.81C70.2844 120.877 71.2687 119.915 72.2531 118.892C73.4906 120.186 74.7844 121.419 76.0781 122.622C88.1156 133.691 100.013 138.172 107.353 133.63C114.947 128.938 117.422 114.711 114.216 97.3863C113.963 96.0629 113.681 94.7094 113.372 93.3258C114.272 93.0551 115.144 92.7543 116.016 92.4535C132.244 86.7086 144 77.4145 144 67.8797C144 58.766 132.919 49.923 117.619 44.2984V44.2984ZM79.5656 18.7621C90.0281 9.0168 99.7875 5.19687 104.231 7.93398C108.984 10.8516 110.812 22.6422 107.831 38.1324C107.634 39.1551 107.438 40.1477 107.184 41.1402C100.941 39.6363 94.6125 38.5535 88.2562 37.952C84.6 32.3574 80.6063 27.0035 76.275 21.9805C77.3719 20.8676 78.4406 19.8148 79.5656 18.7621V18.7621ZM47.025 83.4902C48.4594 86.107 49.9219 88.7238 51.4688 91.2805C47.0812 90.7691 42.7219 90.0172 38.4188 89.0246C39.6563 84.6934 41.2031 80.2117 43.0031 75.6398C44.2969 78.2867 45.6187 80.9035 47.025 83.4902V83.4902ZM38.5031 47.3062C42.5531 46.3437 46.8563 45.5617 51.3281 44.9602C49.8375 47.4566 48.375 50.0133 46.9969 52.6C45.6188 55.1566 44.2687 57.7734 43.0031 60.4203C41.2312 55.9387 39.7406 51.5473 38.5031 47.3062ZM46.2094 68.0301C48.0656 63.8793 50.0906 59.8187 52.2281 55.8184C54.3656 51.818 56.6719 47.9379 59.0906 44.118C63.3094 43.7871 67.6125 43.6066 72 43.6066C76.3875 43.6066 80.7187 43.7871 84.9094 44.118C87.3 47.9078 89.5781 51.7879 91.7438 55.7582C93.9094 59.7285 95.9344 63.7891 97.8469 67.9098C95.9625 72.0605 93.9375 76.1512 91.7719 80.1816C89.6344 84.182 87.3563 88.0621 84.9656 91.9121C80.775 92.243 76.4156 92.3934 72 92.3934C67.5844 92.3934 63.3094 92.243 59.175 91.9723C56.7281 88.1523 54.4219 84.2422 52.2563 80.2418C50.0906 76.2414 48.0938 72.1809 46.2094 68.0301ZM97.0031 83.4301C98.4375 80.7832 99.7875 78.1062 101.109 75.3992C102.909 79.7605 104.484 84.182 105.862 88.7238C101.503 89.7766 97.0875 90.5887 92.6437 91.1301C94.1625 88.6035 95.5969 86.0168 97.0031 83.4301ZM101.053 60.4203C99.7312 57.7734 98.3812 55.1266 96.975 52.5398C95.5969 49.9832 94.1625 47.4566 92.6719 44.9602C97.2 45.5617 101.531 46.3738 105.581 47.3664C104.287 51.818 102.769 56.1492 101.053 60.4203V60.4203ZM72.0563 26.5824C75.0094 30.0113 77.7937 33.6207 80.3812 37.3504C74.8125 37.0797 69.2156 37.0797 63.6469 37.3504C66.4031 33.4703 69.2438 29.8609 72.0563 26.5824ZM39.4312 8.14453C44.1562 5.19688 54.6469 9.40781 65.7 19.875C66.4031 20.5367 67.1062 21.2586 67.8375 21.9805C63.4781 27.0035 59.4563 32.3574 55.7719 37.952C49.4156 38.5535 43.1156 39.6062 36.8719 41.0801C36.5063 39.5461 36.1969 37.982 35.8875 36.418C33.2437 21.8602 34.9875 10.8816 39.4312 8.14453V8.14453ZM32.5406 87.4305C31.3594 87.0695 30.2063 86.6785 29.0531 86.2574C23.0625 84.2422 16.2562 81.0539 11.3344 76.873C8.49375 74.7676 6.58125 71.5191 6.04688 67.8797C6.04688 62.3754 14.9344 55.3371 27.7594 50.5547C29.3625 49.9531 30.9937 49.4117 32.625 48.9004C34.5375 55.4273 36.8438 61.834 39.5156 68.0301C36.8156 74.3164 34.4812 80.8133 32.5406 87.4305V87.4305ZM65.3344 116.907C60.6938 121.449 55.3219 125.058 49.4719 127.525C46.35 129.119 42.75 129.269 39.5438 127.916C35.0719 125.148 33.2156 114.531 35.7469 100.244C36.0562 98.5594 36.3938 96.875 36.7875 95.2207C43.0875 96.6645 49.4437 97.657 55.8844 98.1684C59.5969 103.793 63.675 109.177 68.0344 114.23C67.1344 115.163 66.2344 116.065 65.3344 116.907ZM72.225 109.598C69.3562 106.289 66.4875 102.62 63.7031 98.6797C66.4031 98.8 69.1875 98.8602 72 98.8602C74.8969 98.8602 77.7375 98.8 80.55 98.6496C77.9625 102.47 75.1781 106.109 72.225 109.598V109.598ZM108.984 118.621C108.731 122.291 107.044 125.72 104.344 128.036C99.8719 130.803 90.3375 127.194 80.0438 117.749C78.8625 116.666 77.6812 115.493 76.4719 114.29C80.775 109.207 84.7406 103.823 88.3406 98.1684C94.7813 97.5969 101.194 96.5441 107.522 95.0102C107.803 96.2434 108.056 97.4766 108.281 98.6797C109.659 105.177 109.884 111.944 108.984 118.621V118.621ZM114.103 86.2875C113.316 86.5582 112.528 86.8289 111.713 87.0695C109.744 80.5125 107.325 74.1059 104.541 67.8797C107.241 61.7437 109.519 55.4273 111.431 48.9605C112.894 49.4117 114.3 49.893 115.65 50.3742C128.756 55.1867 137.953 62.3453 137.953 67.8195C137.953 73.7148 128.138 81.3246 114.103 86.2875ZM72 81.7758C79.1156 81.7758 84.8812 75.6098 84.8812 68C84.8812 60.3902 79.1156 54.2242 72 54.2242C64.8844 54.2242 59.1187 60.3902 59.1187 68C59.1187 75.6098 64.8844 81.7758 72 81.7758Z" fill="black"/>
</svg>
