<svg width="20" height="20" viewBox="0 0 20 20" fill="none" xmlns="http://www.w3.org/2000/svg">
<path d="M10 0C11.3132 0 12.6136 0.258658 13.8268 0.761205C15.0401 1.26375 16.1425 2.00035 17.0711 2.92893C17.9997 3.85752 18.7362 4.95991 19.2388 6.17317C19.7413 7.38642 20 8.68678 20 10C20 12.6522 18.9464 15.1957 17.0711 17.0711C15.1957 18.9464 12.6522 20 10 20C8.68678 20 7.38642 19.7413 6.17317 19.2388C4.95991 18.7362 3.85752 17.9997 2.92893 17.0711C1.05357 15.1957 0 12.6522 0 10C0 7.34784 1.05357 4.8043 2.92893 2.92893C4.8043 1.05357 7.34784 0 10 0ZM8 13.33C8.16 13.87 8.14 14.37 8 14.83C8 14.88 7.96 14.93 7.94 15C7.92 15 7.9 15.07 7.87 15.12C7.76 15.36 7.6 15.59 7.41 15.79C6.83 16.43 6 16.67 5.67 16.47C5.29 16.25 5.5 15.35 6.16 14.64C6.88 13.88 7.92 13.38 7.92 13.38L8 13.33ZM16.27 4.28C15.82 2.5 12.87 1.92 10.09 2.91C8.43 3.5 6.63 4.42 5.34 5.63C3.81 7.07 3.56 8.32 3.66 8.84C4 10.68 6.54 11.89 7.58 12.78V12.79C7.28 12.94 5.04 14.07 4.5 15.23C3.96 16.45 4.6 17.33 5 17.45C6.34 17.81 7.69 17.16 8.41 16.07C9.11 15.03 9.06 13.68 8.75 13C9.17 12.9 9.66 12.85 10.28 12.92C12.04 13.13 12.38 14.22 12.31 14.68C12.25 15.14 11.88 15.39 11.76 15.47C11.64 15.54 11.6 15.57 11.61 15.63C11.62 15.71 11.68 15.71 11.78 15.69C11.93 15.66 12.71 15.32 12.74 14.47C12.78 13.39 11.75 12.19 9.93 12.22C9.18 12.24 8.71 12.31 8.37 12.44L8.29 12.35C7.16 11.15 5.08 10.3 5.17 8.68C5.2 8.09 5.4 6.55 9.17 4.67C12.25 3.13 14.72 3.55 15.15 4.5C15.76 5.83 13.83 8.32 10.63 8.68C9.41 8.82 8.76 8.34 8.6 8.17C8.43 8 8.41 7.97 8.35 8C8.24 8.07 8.31 8.23 8.35 8.33C8.44 8.58 8.84 9 9.5 9.24C10.09 9.43 11.53 9.54 13.26 8.87C15.2 8.12 16.72 6.03 16.27 4.28Z" fill="black"/>
</svg>
