<svg width="720" height="456" viewBox="0 0 720 456" fill="none" xmlns="http://www.w3.org/2000/svg">
<g clip-path="url(#clip0_194_161)">
<mask id="mask0_194_161" style="mask-type:luminance" maskUnits="userSpaceOnUse" x="0" y="0" width="720" height="456">
<path d="M720 0H0V456H720V0Z" fill="white"/>
</mask>
<g mask="url(#mask0_194_161)">
<path d="M690 0H30C13.4315 0 0 13.4315 0 30V426C0 442.569 13.4315 456 30 456H690C706.569 456 720 442.569 720 426V30C720 13.4315 706.569 0 690 0Z" fill="url(#paint0_linear_194_161)"/>
<path d="M638.182 74.2855C650.231 74.2855 660 84.5191 660 97.1425C660 109.766 650.231 119.999 638.182 119.999L567.273 120C552.21 120 540 107.207 540 91.4276C540 76.2843 551.248 63.8938 565.467 62.9188C571.583 49.3716 584.746 40 600 40C619.237 40 635.153 54.9029 637.798 74.2889C637.927 74.2866 638.053 74.2855 638.182 74.2855Z" fill="white"/>
<path d="M547 416C575.167 416 598 392.943 598 364.5C598 336.057 575.167 313 547 313C518.833 313 496 336.057 496 364.5C496 392.943 518.833 416 547 416Z" fill="#EA1D25"/>
<path d="M609 416C637.167 416 660 392.943 660 364.5C660 336.057 637.167 313 609 313C580.833 313 558 336.057 558 364.5C558 392.943 580.833 416 609 416Z" fill="#F69E1E"/>
<path fill-rule="evenodd" clip-rule="evenodd" d="M578 404.795C590.16 395.382 598 380.564 598 363.897C598 347.23 590.16 332.413 578 323C565.84 332.413 558 347.23 558 363.897C558 380.564 565.84 395.382 578 404.795Z" fill="#F16022"/>
<path d="M62.8799 415V391.48H67.4239V415H62.8799ZM77.1519 415L69.9839 404.824H75.0719L82.4639 415H77.1519ZM66.0799 407.192V403.512H72.0319C72.8639 403.512 73.5786 403.341 74.1759 403C74.7946 402.659 75.2746 402.179 75.6159 401.56C75.9572 400.941 76.1279 400.237 76.1279 399.448C76.1279 398.637 75.9572 397.923 75.6159 397.304C75.2746 396.685 74.7946 396.205 74.1759 395.864C73.5786 395.523 72.8639 395.352 72.0319 395.352H66.0799V391.48H71.5519C73.4292 391.48 75.0506 391.757 76.4159 392.312C77.8026 392.867 78.8692 393.709 79.6159 394.84C80.3626 395.971 80.7359 397.389 80.7359 399.096V399.608C80.7359 401.336 80.3519 402.755 79.5839 403.864C78.8372 404.973 77.7812 405.805 76.4159 406.36C75.0506 406.915 73.4292 407.192 71.5519 407.192H66.0799ZM86.3592 415V391.64H90.9032V415H86.3592ZM94.8127 415L102.781 391.64H110.205L118.397 415H113.725L106.781 394.744L108.413 395.448H104.413L106.077 394.744L99.3567 415H94.8127ZM100.381 408.792L101.821 404.952H111.293L112.701 408.792H100.381ZM122.251 415V391.64H129.707L139.531 411.224H140.587L139.947 411.8V391.64H144.235V415H136.747L126.923 395.416H125.835L126.475 394.84V415H122.251ZM161.483 415.16V411.512H167.339C168.406 411.512 169.216 411.224 169.771 410.648C170.326 410.051 170.603 409.24 170.603 408.216C170.603 407.192 170.326 406.403 169.771 405.848C169.216 405.272 168.406 404.984 167.339 404.984H161.483V402.2H167.019C168.576 402.2 169.963 402.392 171.179 402.776C172.416 403.139 173.376 403.757 174.059 404.632C174.763 405.507 175.115 406.68 175.115 408.152V408.6C175.115 409.987 174.806 411.171 174.187 412.152C173.59 413.112 172.683 413.859 171.467 414.392C170.272 414.904 168.79 415.16 167.019 415.16H161.483ZM157.675 415.16V391.48H162.123V415.16H157.675ZM161.483 404.248V401.464H166.475C167.563 401.464 168.363 401.176 168.875 400.6C169.387 400.024 169.643 399.256 169.643 398.296C169.643 397.336 169.387 396.568 168.875 395.992C168.363 395.416 167.563 395.128 166.475 395.128H161.483V391.48H166.059C168.704 391.48 170.71 392.035 172.075 393.144C173.462 394.253 174.155 395.843 174.155 397.912V398.36C174.155 399.811 173.803 400.973 173.099 401.848C172.416 402.701 171.467 403.32 170.251 403.704C169.035 404.067 167.638 404.248 166.059 404.248H161.483ZM195.349 415.608C193.279 415.608 191.53 415.277 190.101 414.616C188.693 413.955 187.615 413.048 186.869 411.896C186.122 410.723 185.749 409.4 185.749 407.928H190.197C190.197 408.547 190.367 409.155 190.709 409.752C191.05 410.328 191.594 410.797 192.341 411.16C193.109 411.523 194.111 411.704 195.349 411.704C196.458 411.704 197.386 411.544 198.133 411.224C198.879 410.904 199.434 410.488 199.797 409.976C200.159 409.443 200.341 408.845 200.341 408.184C200.341 407.352 199.989 406.691 199.285 406.2C198.581 405.688 197.493 405.368 196.021 405.24L193.973 405.08C191.733 404.888 189.941 404.195 188.597 403C187.274 401.784 186.613 400.184 186.613 398.2C186.613 396.707 186.965 395.427 187.669 394.36C188.373 393.272 189.354 392.44 190.613 391.864C191.893 391.267 193.386 390.968 195.093 390.968C196.863 390.968 198.389 391.277 199.669 391.896C200.949 392.515 201.941 393.389 202.645 394.52C203.349 395.629 203.701 396.941 203.701 398.456H199.253C199.253 397.816 199.093 397.229 198.773 396.696C198.474 396.141 198.015 395.704 197.397 395.384C196.799 395.043 196.031 394.872 195.093 394.872C194.197 394.872 193.45 395.021 192.853 395.32C192.255 395.619 191.807 396.024 191.509 396.536C191.21 397.048 191.061 397.603 191.061 398.2C191.061 398.925 191.327 399.565 191.861 400.12C192.394 400.653 193.237 400.963 194.389 401.048L196.437 401.24C198.101 401.368 199.562 401.72 200.821 402.296C202.079 402.872 203.05 403.651 203.733 404.632C204.437 405.613 204.789 406.797 204.789 408.184C204.789 409.656 204.405 410.957 203.637 412.088C202.869 413.197 201.77 414.061 200.341 414.68C198.933 415.299 197.269 415.608 195.349 415.608ZM206.867 415L214.835 391.64H222.259L230.451 415H225.779L218.835 394.744L220.467 395.448H216.467L218.131 394.744L211.411 415H206.867ZM212.435 408.792L213.875 404.952H223.347L224.755 408.792H212.435ZM234.305 415V391.64H241.761L251.585 411.224H252.641L252.001 411.8V391.64H256.289V415H248.801L238.977 395.416H237.889L238.529 394.84V415H234.305ZM267.047 415V395H271.591V415H267.047ZM260.295 395.64V391.64H278.343V395.64H260.295ZM278.081 415L286.049 391.64H293.473L301.665 415H296.993L290.049 394.744L291.681 395.448H287.681L289.345 394.744L282.625 415H278.081ZM283.649 408.792L285.089 404.952H294.561L295.969 408.792H283.649ZM305.519 415V391.64H312.975L322.799 411.224H323.855L323.215 411.8V391.64H327.503V415H320.015L310.191 395.416H309.103L309.743 394.84V415H305.519ZM331.349 415L339.317 391.64H346.741L354.933 415H350.261L343.317 394.744L344.949 395.448H340.949L342.613 394.744L335.893 415H331.349ZM336.917 408.792L338.357 404.952H347.829L349.237 408.792H336.917Z" fill="#F5FBFF"/>
<path d="M169 158H87C83.134 158 80 161.134 80 165V218C80 221.866 83.134 225 87 225H169C172.866 225 176 221.866 176 218V165C176 161.134 172.866 158 169 158Z" fill="#EDE7EF" stroke="black" stroke-width="2"/>
<path d="M80 179H108.7" stroke="#1A1A1A" stroke-width="2"/>
<path d="M176 200H146" stroke="#1A1A1A" stroke-width="2"/>
<path d="M80 200H108.7" stroke="#1A1A1A" stroke-width="2"/>
<path d="M176 179H146" stroke="#1A1A1A" stroke-width="2"/>
<path d="M108 179.67C114 166.67 117.223 160.768 122.5 159.67C136.15 157.329 139.594 161.11 143 171.17" stroke="#1A1A1A" stroke-width="2"/>
<path d="M108 179.5C110.899 182.653 111.61 184.802 112 189C111.902 194.417 111.085 196.878 108 200" stroke="#1A1A1A" stroke-width="2"/>
<path d="M147 179C141.926 182.384 140.683 184.69 140 189.195C140.172 195.008 141.601 197.649 147 201" stroke="#1A1A1A" stroke-width="2"/>
<path d="M108 200.5C112.903 214.54 119.311 224.997 126 224.5C137.92 224.65 143.277 218.659 147 200.5" stroke="#1A1A1A" stroke-width="2"/>
<path d="M128 168.5C128.828 168.5 129.5 167.828 129.5 167C129.5 166.172 128.828 165.5 128 165.5C127.172 165.5 126.5 166.172 126.5 167C126.5 167.828 127.172 168.5 128 168.5Z" fill="#1A1A1A" stroke="#1A1A1A"/>
</g>
</g>
<defs>
<linearGradient id="paint0_linear_194_161" x1="719.772" y1="217.208" x2="181.908" y2="519.19" gradientUnits="userSpaceOnUse">
<stop stop-color="#4E7896"/>
<stop offset="1" stop-color="#263F52"/>
</linearGradient>
<clipPath id="clip0_194_161">
<rect width="720" height="456" fill="white"/>
</clipPath>
</defs>
</svg>
