<svg width="211" height="67" viewBox="0 0 211 67" fill="none" xmlns="http://www.w3.org/2000/svg">
<rect x="0.78125" width="209.475" height="67" rx="20" fill="#395B74"/>
<path d="M91.0564 39.92C90.7758 39.3653 90.3861 38.9493 89.8872 38.672C89.3884 38.384 88.8116 38.24 88.1568 38.24C87.4398 38.24 86.8006 38.4053 86.2394 38.736C85.6782 39.0667 85.2365 39.536 84.9144 40.144C84.6026 40.752 84.4467 41.456 84.4467 42.256C84.4467 43.056 84.6026 43.7653 84.9144 44.384C85.2365 44.992 85.6782 45.4613 86.2394 45.792C86.8006 46.1227 87.4398 46.288 88.1568 46.288C89.1234 46.288 89.908 46.0107 90.5108 45.456C91.1135 44.9013 91.4825 44.1493 91.6176 43.2H87.5489V41.744H93.5194V43.168C93.4051 44.032 93.1037 44.8267 92.6153 45.552C92.1372 46.2773 91.5084 46.8587 90.729 47.296C89.96 47.7227 89.1026 47.936 88.1568 47.936C87.1384 47.936 86.2082 47.696 85.3664 47.216C84.5246 46.7253 83.8543 46.048 83.3555 45.184C82.867 44.32 82.6228 43.344 82.6228 42.256C82.6228 41.168 82.867 40.192 83.3555 39.328C83.8543 38.464 84.5246 37.792 85.3664 37.312C86.2186 36.8213 87.1488 36.576 88.1568 36.576C89.3104 36.576 90.3341 36.8693 91.2278 37.456C92.132 38.032 92.7867 38.8533 93.192 39.92H91.0564Z" fill="#F5FBFF"/>
<path d="M98.9979 47.984C98.1873 47.984 97.4546 47.7973 96.7999 47.424C96.1452 47.04 95.6307 46.5067 95.2566 45.824C94.8825 45.1307 94.6954 44.3307 94.6954 43.424C94.6954 42.528 94.8877 41.7333 95.2722 41.04C95.6567 40.3467 96.1815 39.8133 96.8467 39.44C97.5118 39.0667 98.2548 38.88 99.0759 38.88C99.8969 38.88 100.64 39.0667 101.305 39.44C101.97 39.8133 102.495 40.3467 102.88 41.04C103.264 41.7333 103.456 42.528 103.456 43.424C103.456 44.32 103.259 45.1147 102.864 45.808C102.469 46.5013 101.929 47.04 101.243 47.424C100.567 47.7973 99.8189 47.984 98.9979 47.984ZM98.9979 46.4C99.4552 46.4 99.8813 46.288 100.276 46.064C100.682 45.84 101.009 45.504 101.258 45.056C101.508 44.608 101.632 44.064 101.632 43.424C101.632 42.784 101.513 42.2453 101.274 41.808C101.035 41.36 100.718 41.024 100.323 40.8C99.9281 40.576 99.502 40.464 99.0447 40.464C98.5874 40.464 98.1613 40.576 97.7664 40.8C97.3819 41.024 97.0753 41.36 96.8467 41.808C96.618 42.2453 96.5037 42.784 96.5037 43.424C96.5037 44.3733 96.7375 45.1093 97.2052 45.632C97.6833 46.144 98.2808 46.4 98.9979 46.4Z" fill="#F5FBFF"/>
<path d="M108.939 47.984C108.128 47.984 107.396 47.7973 106.741 47.424C106.086 47.04 105.572 46.5067 105.198 45.824C104.823 45.1307 104.636 44.3307 104.636 43.424C104.636 42.528 104.829 41.7333 105.213 41.04C105.598 40.3467 106.122 39.8133 106.788 39.44C107.453 39.0667 108.196 38.88 109.017 38.88C109.838 38.88 110.581 39.0667 111.246 39.44C111.911 39.8133 112.436 40.3467 112.82 41.04C113.205 41.7333 113.397 42.528 113.397 43.424C113.397 44.32 113.2 45.1147 112.805 45.808C112.41 46.5013 111.87 47.04 111.184 47.424C110.508 47.7973 109.76 47.984 108.939 47.984ZM108.939 46.4C109.396 46.4 109.822 46.288 110.217 46.064C110.622 45.84 110.95 45.504 111.199 45.056C111.449 44.608 111.573 44.064 111.573 43.424C111.573 42.784 111.454 42.2453 111.215 41.808C110.976 41.36 110.659 41.024 110.264 40.8C109.869 40.576 109.443 40.464 108.986 40.464C108.528 40.464 108.102 40.576 107.707 40.8C107.323 41.024 107.016 41.36 106.788 41.808C106.559 42.2453 106.445 42.784 106.445 43.424C106.445 44.3733 106.678 45.1093 107.146 45.632C107.624 46.144 108.222 46.4 108.939 46.4Z" fill="#F5FBFF"/>
<path d="M118.615 38.88C119.28 38.88 119.867 39.0187 120.376 39.296C120.896 39.5627 121.301 39.8987 121.592 40.304V39.024H123.385V47.984C123.385 48.7947 123.219 49.5147 122.886 50.144C122.554 50.784 122.07 51.2853 121.436 51.648C120.813 52.0107 120.065 52.192 119.192 52.192C118.028 52.192 117.061 51.9093 116.292 51.344C115.523 50.7893 115.087 50.032 114.983 49.072H116.744C116.879 49.5307 117.165 49.8987 117.602 50.176C118.048 50.464 118.578 50.608 119.192 50.608C119.909 50.608 120.485 50.384 120.922 49.936C121.369 49.488 121.592 48.8373 121.592 47.984V46.512C121.291 46.928 120.88 47.28 120.361 47.568C119.851 47.8453 119.27 47.984 118.615 47.984C117.867 47.984 117.181 47.792 116.557 47.408C115.944 47.0133 115.455 46.4693 115.092 45.776C114.738 45.072 114.562 44.2773 114.562 43.392C114.562 42.5067 114.738 41.7227 115.092 41.04C115.455 40.3573 115.944 39.8293 116.557 39.456C117.181 39.072 117.867 38.88 118.615 38.88ZM121.592 43.424C121.592 42.816 121.468 42.288 121.218 41.84C120.979 41.392 120.662 41.0507 120.267 40.816C119.872 40.5813 119.446 40.464 118.989 40.464C118.532 40.464 118.106 40.5813 117.711 40.816C117.316 41.04 116.994 41.376 116.744 41.824C116.505 42.2613 116.386 42.784 116.386 43.392C116.386 44 116.505 44.5333 116.744 44.992C116.994 45.4507 117.316 45.8027 117.711 46.048C118.116 46.2827 118.542 46.4 118.989 46.4C119.446 46.4 119.872 46.2827 120.267 46.048C120.662 45.8133 120.979 45.472 121.218 45.024C121.468 44.5653 121.592 44.032 121.592 43.424Z" fill="#F5FBFF"/>
<path d="M127.496 36V47.84H125.719V36H127.496Z" fill="#F5FBFF"/>
<path d="M137.702 43.216C137.702 43.5467 137.681 43.8453 137.64 44.112H131.077C131.129 44.816 131.383 45.3813 131.84 45.808C132.298 46.2347 132.859 46.448 133.524 46.448C134.48 46.448 135.156 46.0373 135.551 45.216H137.468C137.208 46.0267 136.735 46.6933 136.049 47.216C135.374 47.728 134.532 47.984 133.524 47.984C132.703 47.984 131.965 47.7973 131.31 47.424C130.666 47.04 130.157 46.5067 129.783 45.824C129.419 45.1307 129.237 44.3307 129.237 43.424C129.237 42.5173 129.414 41.7227 129.767 41.04C130.131 40.3467 130.635 39.8133 131.279 39.44C131.934 39.0667 132.682 38.88 133.524 38.88C134.335 38.88 135.057 39.0613 135.691 39.424C136.325 39.7867 136.818 40.2987 137.172 40.96C137.525 41.6107 137.702 42.3627 137.702 43.216ZM135.847 42.64C135.836 41.968 135.603 41.4293 135.145 41.024C134.688 40.6187 134.122 40.416 133.446 40.416C132.833 40.416 132.308 40.6187 131.872 41.024C131.435 41.4187 131.175 41.9573 131.092 42.64H135.847Z" fill="#F5FBFF"/>
<path d="M151.076 40.032C151.076 40.5973 150.946 41.1307 150.687 41.632C150.427 42.1333 150.011 42.544 149.44 42.864C148.868 43.1733 148.135 43.328 147.242 43.328H145.277V47.84H143.5V36.72H147.242C148.073 36.72 148.774 36.8693 149.346 37.168C149.928 37.456 150.359 37.8507 150.64 38.352C150.931 38.8533 151.076 39.4133 151.076 40.032ZM147.242 41.84C147.917 41.84 148.421 41.6853 148.754 41.376C149.086 41.056 149.252 40.608 149.252 40.032C149.252 38.816 148.582 38.208 147.242 38.208H145.277V41.84H147.242Z" fill="#F5FBFF"/>
<path d="M154.548 36V47.84H152.771V36H154.548Z" fill="#F5FBFF"/>
<path d="M156.289 43.392C156.289 42.5067 156.466 41.7227 156.819 41.04C157.183 40.3573 157.671 39.8293 158.285 39.456C158.908 39.072 159.594 38.88 160.342 38.88C161.018 38.88 161.605 39.0187 162.104 39.296C162.613 39.5627 163.018 39.8987 163.32 40.304V39.024H165.113V47.84H163.32V46.528C163.018 46.944 162.608 47.2907 162.088 47.568C161.569 47.8453 160.976 47.984 160.311 47.984C159.573 47.984 158.898 47.792 158.285 47.408C157.671 47.0133 157.183 46.4693 156.819 45.776C156.466 45.072 156.289 44.2773 156.289 43.392ZM163.32 43.424C163.32 42.816 163.195 42.288 162.946 41.84C162.707 41.392 162.39 41.0507 161.995 40.816C161.6 40.5813 161.174 40.464 160.716 40.464C160.259 40.464 159.833 40.5813 159.438 40.816C159.043 41.04 158.721 41.376 158.472 41.824C158.233 42.2613 158.113 42.784 158.113 43.392C158.113 44 158.233 44.5333 158.472 44.992C158.721 45.4507 159.043 45.8027 159.438 46.048C159.844 46.2827 160.27 46.4 160.716 46.4C161.174 46.4 161.6 46.2827 161.995 46.048C162.39 45.8133 162.707 45.472 162.946 45.024C163.195 44.5653 163.32 44.032 163.32 43.424Z" fill="#F5FBFF"/>
<path d="M175.179 39.024L169.91 51.984H168.07L169.816 47.696L166.433 39.024H168.413L170.83 45.744L173.339 39.024H175.179Z" fill="#F5FBFF"/>
<path d="M82.6228 26.8343V17.7735H84.7954C86.1378 17.7735 87.1579 18.1602 87.8556 18.9337C88.5534 19.7072 88.9022 20.8167 88.9022 22.2624C88.9022 22.9807 88.8138 23.6253 88.6372 24.1961C88.4606 24.7579 88.2001 25.2366 87.8556 25.6326C87.5112 26.0193 87.0873 26.3186 86.5838 26.5304C86.0804 26.733 85.5019 26.8343 84.8484 26.8343H82.6228ZM83.7224 25.895H84.7159C85.7316 25.895 86.4911 25.5773 86.9945 24.942C87.5068 24.3066 87.7629 23.4134 87.7629 22.2624C87.7629 21.1115 87.5068 20.232 86.9945 19.6243C86.4911 19.0166 85.7316 18.7127 84.7159 18.7127H83.7224V25.895ZM93.171 27C92.7735 27 92.3939 26.9217 92.0317 26.7652C91.6785 26.6087 91.3649 26.383 91.0911 26.0884C90.8174 25.7845 90.5966 25.4162 90.4287 24.9834C90.2697 24.5414 90.1903 24.0442 90.1903 23.4917C90.1903 22.93 90.2697 22.4327 90.4287 22C90.5966 21.558 90.8174 21.1851 91.0911 20.8812C91.3649 20.5773 91.6785 20.3471 92.0317 20.1906C92.3939 20.0341 92.7735 19.9558 93.171 19.9558C93.5684 19.9558 93.9439 20.0341 94.297 20.1906C94.6592 20.3471 94.9772 20.5773 95.2509 20.8812C95.5247 21.1851 95.741 21.558 95.9 22C96.0678 22.4327 96.1517 22.93 96.1517 23.4917C96.1517 24.0442 96.0678 24.5414 95.9 24.9834C95.741 25.4162 95.5247 25.7845 95.2509 26.0884C94.9772 26.383 94.6592 26.6087 94.297 26.7652C93.9439 26.9217 93.5684 27 93.171 27ZM93.171 26.0608C93.4448 26.0608 93.6965 26.001 93.9261 25.8812C94.1558 25.7523 94.35 25.5773 94.509 25.3564C94.6768 25.1261 94.8049 24.8546 94.8932 24.5414C94.9815 24.2283 95.0257 23.8785 95.0257 23.4917C95.0257 23.105 94.9815 22.7551 94.8932 22.442C94.8049 22.1198 94.6768 21.8435 94.509 21.6133C94.35 21.383 94.1558 21.2081 93.9261 21.0884C93.6965 20.9595 93.4448 20.895 93.171 20.895C92.8973 20.895 92.6456 20.9595 92.4159 21.0884C92.1863 21.2081 91.9876 21.383 91.8197 21.6133C91.6607 21.8435 91.5371 22.1198 91.4488 22.442C91.3606 22.7551 91.3163 23.105 91.3163 23.4917C91.3163 23.8785 91.3606 24.2283 91.4488 24.5414C91.5371 24.8546 91.6607 25.1261 91.8197 25.3564C91.9876 25.5773 92.1863 25.7523 92.4159 25.8812C92.6456 26.001 92.8973 26.0608 93.171 26.0608ZM98.8157 26.8343L97.0272 20.1215H98.14L99.0939 24.0028C99.1645 24.325 99.2307 24.6381 99.2926 24.942C99.3545 25.2459 99.4162 25.5543 99.4781 25.8674H99.531C99.6017 25.5543 99.6724 25.2459 99.743 24.942C99.8136 24.6289 99.8887 24.3159 99.9682 24.0028L100.962 20.1215H102.022L103.028 24.0028C103.108 24.325 103.183 24.6381 103.254 24.942C103.333 25.2459 103.408 25.5543 103.479 25.8674H103.532C103.602 25.5543 103.669 25.2459 103.731 24.942C103.792 24.6381 103.859 24.325 103.929 24.0028L104.87 20.1215H105.903L104.181 26.8343H102.856L101.929 23.2293C101.849 22.907 101.774 22.5894 101.704 22.2762C101.642 21.9631 101.571 21.6363 101.492 21.2956H101.439C101.368 21.6363 101.297 21.9678 101.227 22.2901C101.156 22.6032 101.077 22.9209 100.988 23.2431L100.087 26.8343H98.8157ZM107.304 26.8343V20.1215H108.205L108.298 21.0884H108.338C108.647 20.7662 108.969 20.499 109.305 20.2873C109.649 20.0663 110.047 19.9558 110.497 19.9558C111.177 19.9558 111.672 20.1768 111.981 20.6188C112.299 21.0608 112.458 21.7145 112.458 22.5801V26.8343H111.371V22.732C111.371 22.0967 111.274 21.6409 111.08 21.3646C110.886 21.0791 110.577 20.9365 110.153 20.9365C109.817 20.9365 109.521 21.0239 109.265 21.1989C109.009 21.3739 108.717 21.6316 108.391 21.9724V26.8343H107.304ZM115.702 27C115.287 27 114.991 26.8711 114.814 26.6133C114.638 26.3554 114.549 25.9779 114.549 25.4807V17H115.636V25.5635C115.636 25.7477 115.666 25.8767 115.728 25.9503C115.79 26.0239 115.861 26.0608 115.94 26.0608C115.976 26.0608 116.006 26.0608 116.033 26.0608C116.068 26.0608 116.117 26.0515 116.179 26.0331L116.324 26.8895C116.254 26.9264 116.17 26.954 116.073 26.9724C115.976 26.9907 115.852 27 115.702 27ZM120.43 27C120.032 27 119.652 26.9217 119.29 26.7652C118.937 26.6087 118.624 26.383 118.35 26.0884C118.076 25.7845 117.855 25.4162 117.687 24.9834C117.528 24.5414 117.449 24.0442 117.449 23.4917C117.449 22.93 117.528 22.4327 117.687 22C117.855 21.558 118.076 21.1851 118.35 20.8812C118.624 20.5773 118.937 20.3471 119.29 20.1906C119.652 20.0341 120.032 19.9558 120.43 19.9558C120.827 19.9558 121.202 20.0341 121.556 20.1906C121.918 20.3471 122.236 20.5773 122.509 20.8812C122.783 21.1851 123 21.558 123.159 22C123.326 22.4327 123.41 22.93 123.41 23.4917C123.41 24.0442 123.326 24.5414 123.159 24.9834C123 25.4162 122.783 25.7845 122.509 26.0884C122.236 26.383 121.918 26.6087 121.556 26.7652C121.202 26.9217 120.827 27 120.43 27ZM120.43 26.0608C120.703 26.0608 120.955 26.001 121.185 25.8812C121.414 25.7523 121.609 25.5773 121.768 25.3564C121.935 25.1261 122.063 24.8546 122.152 24.5414C122.24 24.2283 122.284 23.8785 122.284 23.4917C122.284 23.105 122.24 22.7551 122.152 22.442C122.063 22.1198 121.935 21.8435 121.768 21.6133C121.609 21.383 121.414 21.2081 121.185 21.0884C120.955 20.9595 120.703 20.895 120.43 20.895C120.156 20.895 119.904 20.9595 119.675 21.0884C119.445 21.2081 119.246 21.383 119.078 21.6133C118.919 21.8435 118.796 22.1198 118.707 22.442C118.619 22.7551 118.575 23.105 118.575 23.4917C118.575 23.8785 118.619 24.2283 118.707 24.5414C118.796 24.8546 118.919 25.1261 119.078 25.3564C119.246 25.5773 119.445 25.7523 119.675 25.8812C119.904 26.001 120.156 26.0608 120.43 26.0608ZM126.409 27C125.87 27 125.419 26.8343 125.057 26.5028C124.704 26.1713 124.527 25.7017 124.527 25.0939C124.527 24.3573 124.841 23.7956 125.468 23.4088C126.095 23.0128 127.097 22.7366 128.475 22.5801C128.475 22.3684 128.453 22.1612 128.409 21.9586C128.374 21.7559 128.307 21.5764 128.21 21.4199C128.113 21.2634 127.976 21.1391 127.8 21.047C127.632 20.9457 127.415 20.895 127.15 20.895C126.779 20.895 126.431 20.9686 126.104 21.116C125.777 21.2634 125.486 21.4291 125.23 21.6133L124.806 20.826C125.106 20.6233 125.472 20.43 125.905 20.2459C126.338 20.0525 126.815 19.9558 127.336 19.9558C128.122 19.9558 128.692 20.209 129.045 20.7155C129.398 21.2127 129.575 21.8802 129.575 22.7182V26.8343H128.674L128.581 26.0331H128.541C128.232 26.3001 127.901 26.5304 127.548 26.7238C127.195 26.9079 126.815 27 126.409 27ZM126.726 26.0884C127.036 26.0884 127.327 26.0148 127.601 25.8674C127.875 25.7109 128.166 25.4852 128.475 25.1906V23.326C127.937 23.3996 127.482 23.4872 127.111 23.5884C126.749 23.6896 126.453 23.8094 126.223 23.9475C126.002 24.0856 125.839 24.2468 125.733 24.4309C125.636 24.6059 125.587 24.7993 125.587 25.011C125.587 25.3978 125.698 25.674 125.918 25.8398C126.139 26.0055 126.409 26.0884 126.726 26.0884ZM133.8 27C132.986 27 132.337 26.6961 131.852 26.0884C131.375 25.4807 131.137 24.6151 131.137 23.4917C131.137 22.9485 131.211 22.4604 131.362 22.0276C131.521 21.5856 131.728 21.2127 131.985 20.9088C132.241 20.605 132.536 20.3702 132.872 20.2044C133.208 20.0387 133.561 19.9558 133.932 19.9558C134.303 19.9558 134.625 20.0249 134.899 20.163C135.172 20.3011 135.45 20.4899 135.734 20.7293L135.681 19.5829V17H136.781V26.8343H135.88L135.787 26.047H135.747C135.49 26.3048 135.195 26.5304 134.86 26.7238C134.532 26.9079 134.179 27 133.8 27ZM134.038 26.047C134.338 26.047 134.621 25.9733 134.886 25.826C135.151 25.6695 135.416 25.4347 135.681 25.1215V21.6133C135.407 21.3554 135.142 21.1758 134.886 21.0746C134.638 20.9641 134.383 20.9088 134.118 20.9088C133.861 20.9088 133.618 20.9733 133.389 21.1022C133.168 21.222 132.973 21.3968 132.806 21.6271C132.638 21.8481 132.506 22.1151 132.409 22.4282C132.311 22.7413 132.263 23.0912 132.263 23.4779C132.263 24.2883 132.417 24.9189 132.727 25.3702C133.035 25.8214 133.473 26.047 134.038 26.047ZM142.992 26.8343L140.674 20.1215H141.8L143.019 23.9337C143.116 24.2652 143.212 24.5967 143.31 24.9282C143.416 25.2597 143.517 25.5866 143.615 25.9088H143.668C143.765 25.5866 143.861 25.2597 143.959 24.9282C144.056 24.5967 144.153 24.2652 144.251 23.9337L145.47 20.1215H146.543L144.264 26.8343H142.992ZM147.785 26.8343V20.1215H148.872V26.8343H147.785ZM148.342 18.7403C148.13 18.7403 147.948 18.6713 147.799 18.5331C147.657 18.395 147.587 18.22 147.587 18.0083C147.587 17.7873 147.657 17.6123 147.799 17.4834C147.948 17.3453 148.13 17.2762 148.342 17.2762C148.554 17.2762 148.73 17.3453 148.872 17.4834C149.021 17.6123 149.097 17.7873 149.097 18.0083C149.097 18.22 149.021 18.395 148.872 18.5331C148.73 18.6713 148.554 18.7403 148.342 18.7403ZM152.529 27C151.99 27 151.54 26.8343 151.178 26.5028C150.824 26.1713 150.648 25.7017 150.648 25.0939C150.648 24.3573 150.961 23.7956 151.589 23.4088C152.215 23.0128 153.218 22.7366 154.596 22.5801C154.596 22.3684 154.573 22.1612 154.53 21.9586C154.494 21.7559 154.428 21.5764 154.331 21.4199C154.233 21.2634 154.097 21.1391 153.92 21.047C153.752 20.9457 153.536 20.895 153.271 20.895C152.9 20.895 152.551 20.9686 152.225 21.116C151.897 21.2634 151.606 21.4291 151.35 21.6133L150.926 20.826C151.226 20.6233 151.593 20.43 152.026 20.2459C152.458 20.0525 152.935 19.9558 153.457 19.9558C154.242 19.9558 154.812 20.209 155.166 20.7155C155.518 21.2127 155.696 21.8802 155.696 22.7182V26.8343H154.795L154.702 26.0331H154.662C154.352 26.3001 154.021 26.5304 153.669 26.7238C153.315 26.9079 152.935 27 152.529 27ZM152.847 26.0884C153.156 26.0884 153.447 26.0148 153.722 25.8674C153.995 25.7109 154.286 25.4852 154.596 25.1906V23.326C154.057 23.3996 153.602 23.4872 153.231 23.5884C152.868 23.6896 152.573 23.8094 152.344 23.9475C152.123 24.0856 151.96 24.2468 151.854 24.4309C151.756 24.6059 151.708 24.7993 151.708 25.011C151.708 25.3978 151.818 25.674 152.039 25.8398C152.259 26.0055 152.529 26.0884 152.847 26.0884Z" fill="#F5FBFF"/>
<path fill-rule="evenodd" clip-rule="evenodd" d="M45.729 18C45.6464 18.1823 45.5994 18.3892 45.5994 18.6134V47.1702C45.5994 47.4887 45.6943 47.772 45.8509 48L59.9399 33.0647L45.729 18ZM61.4156 34.629L49.6427 47.1092L64.4112 37.8046L61.4156 34.629ZM66.2625 36.6382L62.8914 33.0647L66.467 29.2743L70.2786 31.6757C71.1488 32.224 71.1488 33.5596 70.2786 34.1079L66.2625 36.6382ZM61.4156 31.5002L48.839 18.1681L64.6157 28.108L61.4156 31.5002Z" fill="#F5FBFF"/>
</svg>
