<svg width="211" height="67" viewBox="0 0 211 67" fill="none" xmlns="http://www.w3.org/2000/svg">
<rect x="0.923096" width="209.475" height="67" rx="20" fill="#395B74"/>
<path d="M86.3054 40.5481L86.0653 41.5448H88.1508L87.9257 40.5481C87.7857 40.0054 87.6507 39.4297 87.5206 38.8206C87.3906 38.2114 87.2606 37.6246 87.1306 37.0598H87.0705C86.9505 37.6357 86.8255 38.2281 86.6955 38.8372C86.5754 39.4352 86.4454 40.0054 86.3054 40.5481ZM82.7646 46.0298L85.8253 35.1993H88.4808L91.5415 46.0298H89.201L88.6009 43.4551H85.6152L85.0151 46.0298H82.7646ZM92.4302 49.0862V37.7907H94.2306L94.3806 38.6046H94.4406C94.7308 38.3167 95.0558 38.0785 95.4158 37.8903C95.786 37.691 96.166 37.5913 96.5561 37.5913C97.0062 37.5913 97.4113 37.691 97.7713 37.8903C98.1314 38.0897 98.4365 38.3721 98.6865 38.7375C98.9366 39.1029 99.1267 39.546 99.2566 40.0664C99.3967 40.5758 99.4667 41.1461 99.4667 41.7773C99.4667 42.4861 99.3767 43.1173 99.1966 43.671C99.0266 44.2137 98.7915 44.6788 98.4915 45.0663C98.2015 45.4429 97.8664 45.7308 97.4863 45.9301C97.1163 46.1294 96.7312 46.2291 96.331 46.2291C96.011 46.2291 95.7009 46.1572 95.4008 46.0132C95.1008 45.8582 94.8208 45.6422 94.5607 45.3653L94.6357 46.6776V49.0862H92.4302ZM95.8209 44.2358C96.2011 44.2358 96.5261 44.0476 96.7961 43.671C97.0662 43.2834 97.2012 42.6632 97.2012 41.8106C97.2012 40.3267 96.7712 39.5847 95.9109 39.5847C95.4809 39.5847 95.0558 39.8338 94.6357 40.3322V43.7042C94.8358 43.9036 95.0358 44.0419 95.2358 44.1195C95.4359 44.1971 95.631 44.2358 95.8209 44.2358ZM101.031 49.0862V37.7907H102.831L102.981 38.6046H103.041C103.331 38.3167 103.656 38.0785 104.016 37.8903C104.386 37.691 104.766 37.5913 105.157 37.5913C105.607 37.5913 106.012 37.691 106.372 37.8903C106.732 38.0897 107.037 38.3721 107.287 38.7375C107.537 39.1029 107.727 39.546 107.857 40.0664C107.997 40.5758 108.067 41.1461 108.067 41.7773C108.067 42.4861 107.977 43.1173 107.797 43.671C107.627 44.2137 107.392 44.6788 107.092 45.0663C106.802 45.4429 106.467 45.7308 106.087 45.9301C105.717 46.1294 105.332 46.2291 104.932 46.2291C104.611 46.2291 104.301 46.1572 104.001 46.0132C103.701 45.8582 103.421 45.6422 103.161 45.3653L103.236 46.6776V49.0862H101.031ZM104.421 44.2358C104.801 44.2358 105.127 44.0476 105.397 43.671C105.667 43.2834 105.802 42.6632 105.802 41.8106C105.802 40.3267 105.372 39.5847 104.511 39.5847C104.081 39.5847 103.656 39.8338 103.236 40.3322V43.7042C103.436 43.9036 103.636 44.0419 103.836 44.1195C104.036 44.1971 104.231 44.2358 104.421 44.2358ZM115.8 46.2291C115.16 46.2291 114.52 46.1017 113.88 45.8471C113.25 45.5813 112.685 45.1881 112.185 44.6677L113.445 42.9899C113.795 43.3222 114.18 43.5934 114.6 43.8039C115.03 44.0143 115.45 44.1195 115.86 44.1195C116.32 44.1195 116.66 44.0253 116.881 43.8371C117.111 43.6489 117.226 43.3941 117.226 43.073C117.226 42.9069 117.191 42.7629 117.121 42.6411C117.061 42.5193 116.966 42.4141 116.836 42.3255C116.716 42.2258 116.565 42.1373 116.385 42.0597C116.215 41.9712 116.025 41.877 115.815 41.7773L114.54 41.1793C114.29 41.0685 114.045 40.9247 113.805 40.7474C113.575 40.5702 113.365 40.3654 113.175 40.1328C112.995 39.8892 112.85 39.6124 112.74 39.3023C112.63 38.9812 112.575 38.6212 112.575 38.2226C112.575 37.7795 112.66 37.3643 112.83 36.9767C113 36.5781 113.24 36.2347 113.55 35.9468C113.86 35.6478 114.225 35.4153 114.645 35.2492C115.075 35.0831 115.545 35 116.055 35C116.626 35 117.186 35.1218 117.736 35.3654C118.296 35.6091 118.786 35.9634 119.206 36.4286L118.081 37.9734C117.761 37.6965 117.441 37.4862 117.121 37.3422C116.801 37.1872 116.445 37.1096 116.055 37.1096C115.675 37.1096 115.37 37.1982 115.14 37.3754C114.92 37.5415 114.81 37.7795 114.81 38.0897C114.81 38.2558 114.845 38.3998 114.915 38.5216C114.995 38.6323 115.1 38.7375 115.23 38.8372C115.37 38.9257 115.53 39.0144 115.71 39.1029C115.89 39.1805 116.085 39.2691 116.295 39.3687L117.556 39.9335C118.156 40.1993 118.626 40.5647 118.966 41.0298C119.316 41.4949 119.491 42.1096 119.491 42.8737C119.491 43.3277 119.406 43.7595 119.236 44.1693C119.076 44.568 118.836 44.9223 118.516 45.2324C118.206 45.5314 117.821 45.7751 117.361 45.9633C116.901 46.1406 116.38 46.2291 115.8 46.2291ZM123.412 46.2291C122.952 46.2291 122.557 46.1515 122.227 45.9966C121.907 45.8416 121.642 45.6256 121.432 45.3487C121.232 45.0718 121.082 44.7396 120.982 44.3521C120.892 43.9534 120.847 43.516 120.847 43.0398V39.7009H119.826V37.8903L120.967 37.7907L121.222 35.598H123.052V37.7907H124.837V39.7009H123.052V43.0066C123.052 43.4717 123.137 43.8094 123.307 44.0198C123.487 44.2192 123.722 44.3188 124.012 44.3188C124.132 44.3188 124.252 44.3022 124.372 44.269C124.502 44.2358 124.618 44.1971 124.717 44.1527L125.062 45.9301C124.862 45.9966 124.627 46.063 124.357 46.1294C124.087 46.1959 123.772 46.2291 123.412 46.2291ZM129.222 46.2291C128.751 46.2291 128.297 46.1349 127.857 45.9467C127.416 45.7474 127.026 45.465 126.687 45.0996C126.357 44.7341 126.091 44.2856 125.892 43.7541C125.691 43.2114 125.592 42.5968 125.592 41.9102C125.592 41.2237 125.691 40.6146 125.892 40.083C126.091 39.5403 126.357 39.0863 126.687 38.7209C127.026 38.3554 127.416 38.0785 127.857 37.8903C128.297 37.691 128.751 37.5913 129.222 37.5913C129.692 37.5913 130.142 37.691 130.573 37.8903C131.012 38.0785 131.398 38.3554 131.728 38.7209C132.067 39.0863 132.337 39.5403 132.538 40.083C132.738 40.6146 132.838 41.2237 132.838 41.9102C132.838 42.5968 132.738 43.2114 132.538 43.7541C132.337 44.2856 132.067 44.7341 131.728 45.0996C131.398 45.465 131.012 45.7474 130.573 45.9467C130.142 46.1349 129.692 46.2291 129.222 46.2291ZM129.222 44.2524C129.672 44.2524 130.012 44.0419 130.243 43.6212C130.472 43.2004 130.588 42.63 130.588 41.9102C130.588 41.1905 130.472 40.6201 130.243 40.1993C130.012 39.7785 129.672 39.5681 129.222 39.5681C128.762 39.5681 128.417 39.7785 128.187 40.1993C127.967 40.6201 127.857 41.1905 127.857 41.9102C127.857 42.63 127.967 43.2004 128.187 43.6212C128.417 44.0419 128.762 44.2524 129.222 44.2524ZM134.348 46.0298V37.7907H136.148L136.298 39.2358H136.358C136.628 38.6711 136.954 38.2558 137.333 37.99C137.714 37.7242 138.094 37.5913 138.473 37.5913C138.684 37.5913 138.854 37.6079 138.984 37.6412C139.124 37.6633 139.249 37.7021 139.359 37.7574L138.999 39.8671C138.859 39.8227 138.729 39.7895 138.609 39.7674C138.488 39.7453 138.349 39.7342 138.188 39.7342C137.909 39.7342 137.614 39.845 137.303 40.0664C137.003 40.2878 136.754 40.681 136.553 41.2458V46.0298H134.348ZM143.51 46.2291C142.98 46.2291 142.485 46.1349 142.025 45.9467C141.565 45.7474 141.165 45.465 140.824 45.0996C140.485 44.723 140.22 44.269 140.029 43.7374C139.84 43.2059 139.744 42.5968 139.744 41.9102C139.744 41.2458 139.845 40.6478 140.044 40.1162C140.245 39.5736 140.505 39.1196 140.824 38.7541C141.154 38.3775 141.53 38.0897 141.95 37.8903C142.37 37.691 142.805 37.5913 143.255 37.5913C143.786 37.5913 144.245 37.691 144.635 37.8903C145.036 38.0897 145.366 38.3666 145.625 38.7209C145.895 39.0752 146.096 39.4961 146.225 39.9833C146.356 40.4596 146.421 40.98 146.421 41.5448C146.421 41.7662 146.411 41.9767 146.391 42.176C146.371 42.3753 146.351 42.5248 146.331 42.6245H141.875C141.975 43.2225 142.195 43.6655 142.535 43.9534C142.886 44.2303 143.31 44.3687 143.81 44.3687C144.341 44.3687 144.875 44.1859 145.415 43.8205L146.15 45.2989C145.771 45.5868 145.346 45.8138 144.875 45.9799C144.416 46.1461 143.96 46.2291 143.51 46.2291ZM141.86 41.0132H144.545C144.545 40.5481 144.451 40.1715 144.26 39.8837C144.071 39.5958 143.75 39.4518 143.3 39.4518C142.95 39.4518 142.64 39.5792 142.37 39.8338C142.11 40.0885 141.94 40.4817 141.86 41.0132Z" fill="#F5FBFF"/>
<path d="M82.7646 26.8343V17.7735H84.9373C86.2796 17.7735 87.2997 18.1602 87.9975 18.9337C88.6952 19.7072 89.044 20.8167 89.044 22.2624C89.044 22.9807 88.9557 23.6253 88.7791 24.1961C88.6025 24.7579 88.3419 25.2366 87.9975 25.6326C87.653 26.0193 87.2291 26.3186 86.7257 26.5304C86.2223 26.733 85.6438 26.8343 84.9903 26.8343H82.7646ZM83.8642 25.895H84.8578C85.8735 25.895 86.633 25.5773 87.1364 24.942C87.6487 24.3066 87.9047 23.4134 87.9047 22.2624C87.9047 21.1115 87.6487 20.232 87.1364 19.6243C86.633 19.0166 85.8735 18.7127 84.8578 18.7127H83.8642V25.895ZM93.3128 27C92.9154 27 92.5357 26.9217 92.1735 26.7652C91.8203 26.6087 91.5068 26.383 91.2329 26.0884C90.9592 25.7845 90.7384 25.4162 90.5706 24.9834C90.4116 24.5414 90.3321 24.0442 90.3321 23.4917C90.3321 22.93 90.4116 22.4327 90.5706 22C90.7384 21.558 90.9592 21.1851 91.2329 20.8812C91.5068 20.5773 91.8203 20.3471 92.1735 20.1906C92.5357 20.0341 92.9154 19.9558 93.3128 19.9558C93.7103 19.9558 94.0857 20.0341 94.4389 20.1906C94.8011 20.3471 95.119 20.5773 95.3927 20.8812C95.6665 21.1851 95.8829 21.558 96.0418 22C96.2097 22.4327 96.2935 22.93 96.2935 23.4917C96.2935 24.0442 96.2097 24.5414 96.0418 24.9834C95.8829 25.4162 95.6665 25.7845 95.3927 26.0884C95.119 26.383 94.8011 26.6087 94.4389 26.7652C94.0857 26.9217 93.7103 27 93.3128 27ZM93.3128 26.0608C93.5867 26.0608 93.8384 26.001 94.0679 25.8812C94.2977 25.7523 94.4919 25.5773 94.6508 25.3564C94.8187 25.1261 94.9468 24.8546 95.035 24.5414C95.1234 24.2283 95.1675 23.8785 95.1675 23.4917C95.1675 23.105 95.1234 22.7551 95.035 22.442C94.9468 22.1198 94.8187 21.8435 94.6508 21.6133C94.4919 21.383 94.2977 21.2081 94.0679 21.0884C93.8384 20.9595 93.5867 20.895 93.3128 20.895C93.0391 20.895 92.7874 20.9595 92.5577 21.0884C92.3281 21.2081 92.1294 21.383 91.9616 21.6133C91.8026 21.8435 91.679 22.1198 91.5906 22.442C91.5024 22.7551 91.4582 23.105 91.4582 23.4917C91.4582 23.8785 91.5024 24.2283 91.5906 24.5414C91.679 24.8546 91.8026 25.1261 91.9616 25.3564C92.1294 25.5773 92.3281 25.7523 92.5577 25.8812C92.7874 26.001 93.0391 26.0608 93.3128 26.0608ZM98.9575 26.8343L97.1691 20.1215H98.2819L99.2357 24.0028C99.3063 24.325 99.3726 24.6381 99.4344 24.942C99.4963 25.2459 99.558 25.5543 99.6199 25.8674H99.6729C99.7435 25.5543 99.8142 25.2459 99.8848 24.942C99.9555 24.6289 100.031 24.3159 100.11 24.0028L101.104 20.1215H102.163L103.17 24.0028C103.25 24.325 103.325 24.6381 103.395 24.942C103.475 25.2459 103.55 25.5543 103.621 25.8674H103.674C103.744 25.5543 103.811 25.2459 103.872 24.942C103.934 24.6381 104.001 24.325 104.071 24.0028L105.012 20.1215H106.045L104.323 26.8343H102.998L102.071 23.2293C101.991 22.907 101.916 22.5894 101.846 22.2762C101.784 21.9631 101.713 21.6363 101.634 21.2956H101.581C101.51 21.6363 101.439 21.9678 101.369 22.2901C101.298 22.6032 101.218 22.9209 101.13 23.2431L100.229 26.8343H98.9575ZM107.446 26.8343V20.1215H108.347L108.44 21.0884H108.48C108.789 20.7662 109.111 20.499 109.447 20.2873C109.791 20.0663 110.188 19.9558 110.639 19.9558C111.319 19.9558 111.814 20.1768 112.123 20.6188C112.441 21.0608 112.6 21.7145 112.6 22.5801V26.8343H111.513V22.732C111.513 22.0967 111.416 21.6409 111.222 21.3646C111.028 21.0791 110.718 20.9365 110.294 20.9365C109.959 20.9365 109.663 21.0239 109.407 21.1989C109.151 21.3739 108.859 21.6316 108.533 21.9724V26.8343H107.446ZM115.844 27C115.429 27 115.133 26.8711 114.956 26.6133C114.779 26.3554 114.691 25.9779 114.691 25.4807V17H115.777V25.5635C115.777 25.7477 115.808 25.8767 115.87 25.9503C115.932 26.0239 116.003 26.0608 116.082 26.0608C116.117 26.0608 116.148 26.0608 116.175 26.0608C116.21 26.0608 116.259 26.0515 116.321 26.0331L116.466 26.8895C116.396 26.9264 116.312 26.954 116.215 26.9724C116.117 26.9907 115.994 27 115.844 27ZM120.571 27C120.174 27 119.794 26.9217 119.432 26.7652C119.079 26.6087 118.765 26.383 118.492 26.0884C118.218 25.7845 117.997 25.4162 117.829 24.9834C117.67 24.5414 117.591 24.0442 117.591 23.4917C117.591 22.93 117.67 22.4327 117.829 22C117.997 21.558 118.218 21.1851 118.492 20.8812C118.765 20.5773 119.079 20.3471 119.432 20.1906C119.794 20.0341 120.174 19.9558 120.571 19.9558C120.969 19.9558 121.344 20.0341 121.698 20.1906C122.06 20.3471 122.378 20.5773 122.651 20.8812C122.925 21.1851 123.142 21.558 123.3 22C123.468 22.4327 123.552 22.93 123.552 23.4917C123.552 24.0442 123.468 24.5414 123.3 24.9834C123.142 25.4162 122.925 25.7845 122.651 26.0884C122.378 26.383 122.06 26.6087 121.698 26.7652C121.344 26.9217 120.969 27 120.571 27ZM120.571 26.0608C120.845 26.0608 121.097 26.001 121.327 25.8812C121.556 25.7523 121.751 25.5773 121.909 25.3564C122.077 25.1261 122.205 24.8546 122.294 24.5414C122.382 24.2283 122.426 23.8785 122.426 23.4917C122.426 23.105 122.382 22.7551 122.294 22.442C122.205 22.1198 122.077 21.8435 121.909 21.6133C121.751 21.383 121.556 21.2081 121.327 21.0884C121.097 20.9595 120.845 20.895 120.571 20.895C120.298 20.895 120.046 20.9595 119.816 21.0884C119.587 21.2081 119.388 21.383 119.22 21.6133C119.061 21.8435 118.938 22.1198 118.849 22.442C118.761 22.7551 118.717 23.105 118.717 23.4917C118.717 23.8785 118.761 24.2283 118.849 24.5414C118.938 24.8546 119.061 25.1261 119.22 25.3564C119.388 25.5773 119.587 25.7523 119.816 25.8812C120.046 26.001 120.298 26.0608 120.571 26.0608ZM126.55 27C126.012 27 125.561 26.8343 125.199 26.5028C124.846 26.1713 124.669 25.7017 124.669 25.0939C124.669 24.3573 124.983 23.7956 125.61 23.4088C126.237 23.0128 127.239 22.7366 128.617 22.5801C128.617 22.3684 128.595 22.1612 128.551 21.9586C128.516 21.7559 128.449 21.5764 128.352 21.4199C128.255 21.2634 128.118 21.1391 127.941 21.047C127.774 20.9457 127.557 20.895 127.292 20.895C126.921 20.895 126.573 20.9686 126.246 21.116C125.919 21.2634 125.628 21.4291 125.371 21.6133L124.947 20.826C125.248 20.6233 125.614 20.43 126.047 20.2459C126.48 20.0525 126.957 19.9558 127.478 19.9558C128.264 19.9558 128.834 20.209 129.187 20.7155C129.539 21.2127 129.717 21.8802 129.717 22.7182V26.8343H128.816L128.723 26.0331H128.683C128.374 26.3001 128.043 26.5304 127.69 26.7238C127.337 26.9079 126.957 27 126.55 27ZM126.868 26.0884C127.178 26.0884 127.469 26.0148 127.743 25.8674C128.017 25.7109 128.308 25.4852 128.617 25.1906V23.326C128.078 23.3996 127.623 23.4872 127.253 23.5884C126.89 23.6896 126.595 23.8094 126.365 23.9475C126.144 24.0856 125.981 24.2468 125.875 24.4309C125.778 24.6059 125.729 24.7993 125.729 25.011C125.729 25.3978 125.84 25.674 126.06 25.8398C126.281 26.0055 126.55 26.0884 126.868 26.0884ZM133.942 27C133.128 27 132.479 26.6961 131.994 26.0884C131.517 25.4807 131.279 24.6151 131.279 23.4917C131.279 22.9485 131.353 22.4604 131.504 22.0276C131.663 21.5856 131.87 21.2127 132.127 20.9088C132.382 20.605 132.678 20.3702 133.014 20.2044C133.349 20.0387 133.703 19.9558 134.074 19.9558C134.445 19.9558 134.767 20.0249 135.041 20.163C135.314 20.3011 135.592 20.4899 135.876 20.7293L135.823 19.5829V17H136.922V26.8343H136.022L135.929 26.047H135.889C135.632 26.3048 135.337 26.5304 135.001 26.7238C134.674 26.9079 134.321 27 133.942 27ZM134.18 26.047C134.48 26.047 134.763 25.9733 135.028 25.826C135.293 25.6695 135.558 25.4347 135.823 25.1215V21.6133C135.549 21.3554 135.284 21.1758 135.028 21.0746C134.78 20.9641 134.525 20.9088 134.26 20.9088C134.003 20.9088 133.76 20.9733 133.531 21.1022C133.31 21.222 133.115 21.3968 132.948 21.6271C132.78 21.8481 132.647 22.1151 132.551 22.4282C132.453 22.7413 132.405 23.0912 132.405 23.4779C132.405 24.2883 132.559 24.9189 132.869 25.3702C133.177 25.8214 133.614 26.047 134.18 26.047ZM143.134 26.8343L140.816 20.1215H141.942L143.161 23.9337C143.257 24.2652 143.354 24.5967 143.452 24.9282C143.558 25.2597 143.659 25.5866 143.757 25.9088H143.81C143.907 25.5866 144.003 25.2597 144.101 24.9282C144.198 24.5967 144.295 24.2652 144.393 23.9337L145.612 20.1215H146.685L144.406 26.8343H143.134ZM147.927 26.8343V20.1215H149.014V26.8343H147.927ZM148.484 18.7403C148.272 18.7403 148.09 18.6713 147.94 18.5331C147.799 18.395 147.729 18.22 147.729 18.0083C147.729 17.7873 147.799 17.6123 147.94 17.4834C148.09 17.3453 148.272 17.2762 148.484 17.2762C148.696 17.2762 148.872 17.3453 149.014 17.4834C149.163 17.6123 149.239 17.7873 149.239 18.0083C149.239 18.22 149.163 18.395 149.014 18.5331C148.872 18.6713 148.696 18.7403 148.484 18.7403ZM152.671 27C152.132 27 151.682 26.8343 151.32 26.5028C150.966 26.1713 150.79 25.7017 150.79 25.0939C150.79 24.3573 151.103 23.7956 151.731 23.4088C152.357 23.0128 153.36 22.7366 154.738 22.5801C154.738 22.3684 154.715 22.1612 154.672 21.9586C154.636 21.7559 154.57 21.5764 154.473 21.4199C154.375 21.2634 154.238 21.1391 154.062 21.047C153.894 20.9457 153.678 20.895 153.413 20.895C153.042 20.895 152.692 20.9686 152.367 21.116C152.039 21.2634 151.748 21.4291 151.492 21.6133L151.068 20.826C151.368 20.6233 151.735 20.43 152.168 20.2459C152.6 20.0525 153.077 19.9558 153.599 19.9558C154.384 19.9558 154.954 20.209 155.307 20.7155C155.66 21.2127 155.837 21.8802 155.837 22.7182V26.8343H154.937L154.844 26.0331H154.804C154.494 26.3001 154.163 26.5304 153.81 26.7238C153.457 26.9079 153.077 27 152.671 27ZM152.989 26.0884C153.298 26.0884 153.589 26.0148 153.863 25.8674C154.136 25.7109 154.428 25.4852 154.738 25.1906V23.326C154.199 23.3996 153.744 23.4872 153.373 23.5884C153.01 23.6896 152.715 23.8094 152.486 23.9475C152.264 24.0856 152.102 24.2468 151.996 24.4309C151.898 24.6059 151.85 24.7993 151.85 25.011C151.85 25.3978 151.96 25.674 152.181 25.8398C152.401 26.0055 152.671 26.0884 152.989 26.0884Z" fill="#F5FBFF"/>
<path d="M44.7822 34.0056C44.5103 29.0541 47.8696 24 52.8093 24C53.9468 24 54.4626 24.2779 55.7015 24.683C56.3649 24.8999 57.489 25.5026 58.1389 25.5026C58.7889 25.5026 59.5687 25.0586 60.6209 24.6531C62.1134 24.0779 62.9962 24.0164 63.8585 24C66.7509 24 68.8743 25.2706 70.2282 27.2442C67.9935 28.7722 66.8159 30.6249 66.7508 33.6301C66.7508 36.3619 68.4083 39.0256 71.073 40.2208C70.4231 43.0893 66.9133 48.9972 64.0211 48.9972C63.0278 48.9374 62.4175 48.7746 61.2587 48.3141C60.3953 47.9164 59.2438 47.6311 58.4964 47.6311C57.7163 47.5971 56.8422 47.8627 55.7503 48.3141C54.8241 48.6971 54.2722 48.9144 53.0042 48.9972C50.5993 49.1539 45.264 42.782 44.7822 34.0056Z" fill="#F5FBFF"/>
<path d="M59.2736 19.2521C57.8757 20.6052 57.3434 22.3869 57.4449 24C59.7477 23.8479 61.3393 22.9957 62.7955 21.413C64.2515 19.8304 64.2623 18.6804 64.2515 17C62.5567 17.2479 60.5943 17.9739 59.2736 19.2521Z" fill="#F5FBFF"/>
</svg>
