<svg width="57" height="62" viewBox="0 0 57 62" fill="none" xmlns="http://www.w3.org/2000/svg">
<path d="M43.0751 15.0477H43.1031M41.75 2H15.25C7.93219 2 2 8.49183 2 16.5V45.5C2 53.5082 7.93219 60 15.25 60H41.75C49.0678 60 55 53.5082 55 45.5V16.5C55 8.49183 49.0678 2 41.75 2ZM39.1 29.173C39.4269 31.5865 39.0503 34.0514 38.0234 36.2171C36.9966 38.3829 35.3718 40.1392 33.3803 41.2361C31.3887 42.333 29.1319 42.7147 26.9305 42.3272C24.7294 41.9395 22.6958 40.8022 21.1192 39.0771C19.5427 37.3517 18.5034 35.1264 18.1493 32.7174C17.795 30.3085 18.144 27.8387 19.1463 25.6593C20.1487 23.48 21.7536 21.7019 23.7325 20.5781C25.7115 19.4544 27.964 19.042 30.1695 19.4C32.419 19.7651 34.5017 20.9122 36.11 22.6721C37.718 24.4319 38.7664 26.7111 39.1 29.173Z" stroke="#7FB4DA" stroke-width="4" stroke-linecap="round" stroke-linejoin="round"/>
</svg>
