<svg width="62" height="54" viewBox="0 0 62 54" fill="none" xmlns="http://www.w3.org/2000/svg">
<path d="M60 2.02791C57.4754 3.9101 54.6801 5.34976 51.7218 6.29133C50.134 4.36163 48.0239 2.994 45.6767 2.37331C43.3295 1.75262 40.8587 1.90875 38.5982 2.82063C36.3378 3.73251 34.3968 5.35608 33.0378 7.47199C31.679 9.5879 30.9676 12.0937 31 14.6508V17.4374C26.3669 17.5642 21.776 16.4782 17.6363 14.2758C13.4965 12.0735 9.93621 8.82314 7.27274 4.81451C7.27274 4.81451 -3.27272 29.893 20.4545 41.039C15.025 44.9344 8.55708 46.8875 2 46.612C25.7273 60.5444 54.7273 46.612 54.7273 14.5672C54.7249 13.791 54.6542 13.0168 54.5163 12.2544C57.2071 9.44977 59.1059 5.90876 60 2.02791Z" stroke="#7FB4DA" stroke-width="4" stroke-linecap="round" stroke-linejoin="round"/>
</svg>
