<svg width="69" height="58" viewBox="0 0 69 58" fill="none" xmlns="http://www.w3.org/2000/svg">
<path d="M65.6392 10.4527C65.2882 8.79511 64.5736 7.27638 63.5671 6.04972C62.5609 4.82306 61.2984 3.93231 59.9076 3.46704C54.8263 2 34.5 2 34.5 2C34.5 2 14.1737 2 9.09231 3.60664C7.70151 4.07191 6.43909 4.9629 5.43277 6.18932C4.42641 7.41599 3.71166 8.93472 3.36072 10.5926C2.43071 16.6894 1.97579 22.8747 2.00169 29.0699C1.96854 35.3119 2.42348 41.544 3.36072 47.6871C3.74761 49.2933 4.47837 50.7543 5.4824 51.9291C6.48642 53.1038 7.72975 53.9526 9.09231 54.3934C14.1737 56 34.5 56 34.5 56C34.5 56 54.8263 56 59.9076 54.3934C61.2984 53.9281 62.5609 53.0373 63.5671 51.8107C64.5736 50.584 65.2882 49.0653 65.6392 47.4077C66.562 41.3565 67.017 35.2185 66.9983 29.0699C67.0314 22.828 66.5764 16.5958 65.6392 10.4527Z" stroke="#7FB4DA" stroke-width="4" stroke-linecap="round" stroke-linejoin="round"/>
<path d="M27.8523 40.4928L44.84 29.071L27.8523 17.6492V40.4928Z" stroke="#7FB4DA" stroke-width="4" stroke-linecap="round" stroke-linejoin="round"/>
</svg>
