<svg width="60" height="60" viewBox="0 0 60 60" fill="none" xmlns="http://www.w3.org/2000/svg">
<path fill-rule="evenodd" clip-rule="evenodd" d="M42 15C43.6569 15 45 16.3432 45 18V42C45 43.6569 43.6569 45 42 45C40.3431 45 39 43.6569 39 42V18C39 16.3432 40.3431 15 42 15ZM30 21C31.6569 21 33 22.3432 33 24V42C33 43.6569 31.6569 45 30 45C28.3431 45 27 43.6569 27 42V24C27 22.3432 28.3431 21 30 21ZM21 27C21 25.3431 19.6569 24 18 24C16.3432 24 15 25.3431 15 27V42C15 43.6569 16.3432 45 18 45C19.6568 45 21 43.6569 21 42V27ZM15.7502 1.16346C19.6463 0.2976 24.3729 0 30 0C35.6271 0 40.3536 0.2976 44.2497 1.16346C48.18 2.03691 51.4464 3.528 53.9592 6.04074C56.472 8.55348 57.963 11.8201 58.8366 15.7502C59.7024 19.6463 60 24.3729 60 30C60 35.6271 59.7024 40.3536 58.8366 44.2497C57.963 48.18 56.472 51.4464 53.9592 53.9592C51.4464 56.472 48.18 57.963 44.2497 58.8366C40.3536 59.7024 35.6271 60 30 60C24.3729 60 19.6463 59.7024 15.7502 58.8366C11.8201 57.963 8.55348 56.472 6.04074 53.9592C3.528 51.4464 2.03691 48.18 1.16346 44.2497C0.2976 40.3536 0 35.6271 0 30C0 24.3729 0.2976 19.6463 1.16346 15.7502C2.03691 11.8201 3.528 8.55348 6.04074 6.04074C8.55348 3.528 11.8201 2.03691 15.7502 1.16346Z" fill="#F5FBFF"/>
</svg>
