<svg width="48" height="51" viewBox="0 0 48 51" fill="none" xmlns="http://www.w3.org/2000/svg">
<path d="M48 23.2485V12.0484C48 9.95636 46.33 7.58367 44.2559 6.79277L29.2525 0.975863C25.8855 -0.325288 22.0875 -0.325288 18.7205 0.975863L3.71718 6.79277C1.67004 7.58367 0 9.95636 0 12.0484V23.2485C0 35.7242 9.56231 47.4091 22.6262 50.8278C23.5151 51.0574 24.4848 51.0574 25.3737 50.8278C38.4377 47.4091 48 35.7242 48 23.2485ZM26.0202 27.7132V34.4231C26.0202 35.4691 25.1043 36.3365 23.9999 36.3365C22.8956 36.3365 21.9797 35.4691 21.9797 34.4231V27.7132C19.2592 26.8968 17.266 24.4986 17.266 21.6667C17.266 18.146 20.2828 15.2885 23.9999 15.2885C27.7171 15.2885 30.734 18.146 30.734 21.6667C30.734 24.5241 28.7407 26.8968 26.0202 27.7132Z" fill="#F5FBFF"/>
</svg>
