<svg width="28" height="32" viewBox="0 0 28 32" fill="none" xmlns="http://www.w3.org/2000/svg">
<path d="M0.782231 17.0056C0.510279 12.0541 3.86955 7 8.80927 7C9.94675 7 10.4626 7.27795 11.7015 7.68304C12.3649 7.89988 13.489 8.50259 14.1389 8.50259C14.7889 8.50259 15.5687 8.05856 16.6209 7.65314C18.1134 7.07786 18.9962 7.01643 19.8585 7C22.7509 7 24.8743 8.27064 26.2282 10.2442C23.9935 11.7722 22.8159 13.6249 22.7508 16.6301C22.7508 19.3619 24.4083 22.0256 27.073 23.2208C26.4231 26.0893 22.9133 31.9972 20.0211 31.9972C19.0278 31.9374 18.4175 31.7746 17.2587 31.3141C16.3953 30.9164 15.2438 30.6311 14.4964 30.6311C13.7163 30.5971 12.8422 30.8627 11.7503 31.3141C10.8241 31.6971 10.2722 31.9144 9.00416 31.9972C6.59926 32.1539 1.26404 25.782 0.782231 17.0056Z" fill="#F5FBFF"/>
<path d="M15.2736 2.25213C13.8757 3.60519 13.3434 5.38692 13.4449 7C15.7477 6.84789 17.3393 5.99567 18.7955 4.41305C20.2515 2.83042 20.2623 1.68042 20.2515 0C18.5567 0.247861 16.5943 0.973877 15.2736 2.25213Z" fill="#F5FBFF"/>
</svg>
