<svg width="470" height="399" viewBox="0 0 470 399" fill="none" xmlns="http://www.w3.org/2000/svg">
<path d="M112.84 382.448C109.725 382.448 106.909 381.915 104.392 380.848C101.917 379.781 99.9547 378.245 98.504 376.24C97.0533 374.235 96.3067 371.867 96.264 369.136H105.864C105.992 370.971 106.632 372.421 107.784 373.488C108.979 374.555 110.6 375.088 112.648 375.088C114.739 375.088 116.381 374.597 117.576 373.616C118.771 372.592 119.368 371.269 119.368 369.648C119.368 368.325 118.963 367.237 118.152 366.384C117.341 365.531 116.317 364.869 115.08 364.4C113.885 363.888 112.221 363.333 110.088 362.736C107.187 361.883 104.819 361.051 102.984 360.24C101.192 359.387 99.6347 358.128 98.312 356.464C97.032 354.757 96.392 352.496 96.392 349.68C96.392 347.035 97.0533 344.731 98.376 342.768C99.6987 340.805 101.555 339.312 103.944 338.288C106.333 337.221 109.064 336.688 112.136 336.688C116.744 336.688 120.477 337.819 123.336 340.08C126.237 342.299 127.837 345.413 128.136 349.424H118.28C118.195 347.888 117.533 346.629 116.296 345.648C115.101 344.624 113.501 344.112 111.496 344.112C109.747 344.112 108.339 344.56 107.272 345.456C106.248 346.352 105.736 347.653 105.736 349.36C105.736 350.555 106.12 351.557 106.888 352.368C107.699 353.136 108.68 353.776 109.832 354.288C111.027 354.757 112.691 355.312 114.824 355.952C117.725 356.805 120.093 357.659 121.928 358.512C123.763 359.365 125.341 360.645 126.664 362.352C127.987 364.059 128.648 366.299 128.648 369.072C128.648 371.461 128.029 373.68 126.792 375.728C125.555 377.776 123.741 379.419 121.352 380.656C118.963 381.851 116.125 382.448 112.84 382.448ZM158.176 382L146.144 366.896V382H137.184V334.64H146.144V361.584L158.048 346.544H169.696L154.08 364.336L169.824 382H158.176ZM209.247 346.544L187.295 398.768H177.759L185.439 381.104L171.231 346.544H181.279L190.431 371.312L199.711 346.544H209.247ZM240.189 359.088C242.706 359.557 244.776 360.816 246.397 362.864C248.018 364.912 248.829 367.259 248.829 369.904C248.829 372.293 248.232 374.405 247.037 376.24C245.885 378.032 244.2 379.44 241.981 380.464C239.762 381.488 237.138 382 234.109 382H214.845V337.328H233.277C236.306 337.328 238.909 337.819 241.085 338.8C243.304 339.781 244.968 341.147 246.077 342.896C247.229 344.645 247.805 346.629 247.805 348.848C247.805 351.451 247.101 353.627 245.693 355.376C244.328 357.125 242.493 358.363 240.189 359.088ZM223.805 355.76H231.997C234.13 355.76 235.773 355.291 236.925 354.352C238.077 353.371 238.653 351.984 238.653 350.192C238.653 348.4 238.077 347.013 236.925 346.032C235.773 345.051 234.13 344.56 231.997 344.56H223.805V355.76ZM232.829 374.704C235.005 374.704 236.69 374.192 237.885 373.168C239.122 372.144 239.741 370.693 239.741 368.816C239.741 366.896 239.101 365.403 237.821 364.336C236.541 363.227 234.813 362.672 232.637 362.672H223.805V374.704H232.829ZM254.434 364.144C254.434 360.56 255.138 357.381 256.546 354.608C257.997 351.835 259.938 349.701 262.37 348.208C264.845 346.715 267.597 345.968 270.626 345.968C273.271 345.968 275.575 346.501 277.538 347.568C279.543 348.635 281.143 349.979 282.338 351.6V346.544H291.362V382H282.338V376.816C281.186 378.48 279.586 379.867 277.538 380.976C275.533 382.043 273.207 382.576 270.562 382.576C267.575 382.576 264.845 381.808 262.37 380.272C259.938 378.736 257.997 376.581 256.546 373.808C255.138 370.992 254.434 367.771 254.434 364.144ZM282.338 364.272C282.338 362.096 281.911 360.24 281.058 358.704C280.205 357.125 279.053 355.931 277.602 355.12C276.151 354.267 274.594 353.84 272.93 353.84C271.266 353.84 269.73 354.245 268.322 355.056C266.914 355.867 265.762 357.061 264.866 358.64C264.013 360.176 263.586 362.011 263.586 364.144C263.586 366.277 264.013 368.155 264.866 369.776C265.762 371.355 266.914 372.571 268.322 373.424C269.773 374.277 271.309 374.704 272.93 374.704C274.594 374.704 276.151 374.299 277.602 373.488C279.053 372.635 280.205 371.44 281.058 369.904C281.911 368.325 282.338 366.448 282.338 364.272ZM320.529 346.032C324.753 346.032 328.166 347.376 330.769 350.064C333.372 352.709 334.673 356.421 334.673 361.2V382H325.713V362.416C325.713 359.6 325.009 357.445 323.601 355.952C322.193 354.416 320.273 353.648 317.841 353.648C315.366 353.648 313.404 354.416 311.953 355.952C310.545 357.445 309.841 359.6 309.841 362.416V382H300.881V346.544H309.841V350.96C311.036 349.424 312.55 348.229 314.385 347.376C316.262 346.48 318.31 346.032 320.529 346.032ZM364.954 382L352.922 366.896V382H343.962V334.64H352.922V361.584L364.826 346.544H376.474L360.858 364.336L376.602 382H364.954Z" fill="white"/>
<path d="M384.545 129.856C431.74 129.856 470 168.616 470 216.427C470 264.238 431.74 302.998 384.545 302.998L106.818 303C47.8242 303 0 254.546 0 194.782C0 137.427 44.0531 90.4977 99.7458 86.805C123.7 35.4949 175.253 0 235 0C310.343 0 372.682 56.4446 383.044 129.869C383.546 129.861 384.041 129.856 384.545 129.856Z" fill="white"/>
</svg>
