<svg width="281" height="65" viewBox="0 0 281 65" fill="none" xmlns="http://www.w3.org/2000/svg">
<path d="M16.84 48.448C13.7253 48.448 10.9093 47.9147 8.392 46.848C5.91733 45.7813 3.95467 44.2453 2.504 42.24C1.05333 40.2347 0.306667 37.8667 0.264 35.136H9.864C9.992 36.9707 10.632 38.4213 11.784 39.488C12.9787 40.5547 14.6 41.088 16.648 41.088C18.7387 41.088 20.3813 40.5973 21.576 39.616C22.7707 38.592 23.368 37.2693 23.368 35.648C23.368 34.3253 22.9627 33.2373 22.152 32.384C21.3413 31.5307 20.3173 30.8693 19.08 30.4C17.8853 29.888 16.2213 29.3333 14.088 28.736C11.1867 27.8827 8.81867 27.0507 6.984 26.24C5.192 25.3867 3.63467 24.128 2.312 22.464C1.032 20.7573 0.392 18.496 0.392 15.68C0.392 13.0347 1.05333 10.7307 2.376 8.768C3.69867 6.80533 5.55467 5.312 7.944 4.288C10.3333 3.22133 13.064 2.688 16.136 2.688C20.744 2.688 24.4773 3.81867 27.336 6.08C30.2373 8.29866 31.8373 11.4133 32.136 15.424H22.28C22.1947 13.888 21.5333 12.6293 20.296 11.648C19.1013 10.624 17.5013 10.112 15.496 10.112C13.7467 10.112 12.3387 10.56 11.272 11.456C10.248 12.352 9.736 13.6533 9.736 15.36C9.736 16.5547 10.12 17.5573 10.888 18.368C11.6987 19.136 12.68 19.776 13.832 20.288C15.0267 20.7573 16.6907 21.312 18.824 21.952C21.7253 22.8053 24.0933 23.6587 25.928 24.512C27.7627 25.3653 29.3413 26.6453 30.664 28.352C31.9867 30.0587 32.648 32.2987 32.648 35.072C32.648 37.4613 32.0293 39.68 30.792 41.728C29.5547 43.776 27.7413 45.4187 25.352 46.656C22.9627 47.8507 20.1253 48.448 16.84 48.448ZM62.176 48L50.144 32.896V48H41.184V0.639999H50.144V27.584L62.048 12.544H73.696L58.08 30.336L73.824 48H62.176ZM113.247 12.544L91.295 64.768H81.759L89.439 47.104L75.231 12.544H85.279L94.431 37.312L103.711 12.544H113.247ZM144.189 25.088C146.706 25.5573 148.776 26.816 150.397 28.864C152.018 30.912 152.829 33.2587 152.829 35.904C152.829 38.2933 152.232 40.4053 151.037 42.24C149.885 44.032 148.2 45.44 145.981 46.464C143.762 47.488 141.138 48 138.109 48H118.845V3.328H137.277C140.306 3.328 142.909 3.81867 145.085 4.8C147.304 5.78133 148.968 7.14667 150.077 8.896C151.229 10.6453 151.805 12.6293 151.805 14.848C151.805 17.4507 151.101 19.6267 149.693 21.376C148.328 23.1253 146.493 24.3627 144.189 25.088ZM127.805 21.76H135.997C138.13 21.76 139.773 21.2907 140.925 20.352C142.077 19.3707 142.653 17.984 142.653 16.192C142.653 14.4 142.077 13.0133 140.925 12.032C139.773 11.0507 138.13 10.56 135.997 10.56H127.805V21.76ZM136.829 40.704C139.005 40.704 140.69 40.192 141.885 39.168C143.122 38.144 143.741 36.6933 143.741 34.816C143.741 32.896 143.101 31.4027 141.821 30.336C140.541 29.2267 138.813 28.672 136.637 28.672H127.805V40.704H136.829ZM158.434 30.144C158.434 26.56 159.138 23.3813 160.546 20.608C161.997 17.8347 163.938 15.7013 166.37 14.208C168.845 12.7147 171.597 11.968 174.626 11.968C177.271 11.968 179.575 12.5013 181.538 13.568C183.543 14.6347 185.143 15.9787 186.338 17.6V12.544H195.362V48H186.338V42.816C185.186 44.48 183.586 45.8667 181.538 46.976C179.533 48.0427 177.207 48.576 174.562 48.576C171.575 48.576 168.845 47.808 166.37 46.272C163.938 44.736 161.997 42.5813 160.546 39.808C159.138 36.992 158.434 33.7707 158.434 30.144ZM186.338 30.272C186.338 28.096 185.911 26.24 185.058 24.704C184.205 23.1253 183.053 21.9307 181.602 21.12C180.151 20.2667 178.594 19.84 176.93 19.84C175.266 19.84 173.73 20.2453 172.322 21.056C170.914 21.8667 169.762 23.0613 168.866 24.64C168.013 26.176 167.586 28.0107 167.586 30.144C167.586 32.2773 168.013 34.1547 168.866 35.776C169.762 37.3547 170.914 38.5707 172.322 39.424C173.773 40.2773 175.309 40.704 176.93 40.704C178.594 40.704 180.151 40.2987 181.602 39.488C183.053 38.6347 184.205 37.44 185.058 35.904C185.911 34.3253 186.338 32.448 186.338 30.272ZM224.529 12.032C228.753 12.032 232.166 13.376 234.769 16.064C237.372 18.7093 238.673 22.4213 238.673 27.2V48H229.713V28.416C229.713 25.6 229.009 23.4453 227.601 21.952C226.193 20.416 224.273 19.648 221.841 19.648C219.366 19.648 217.404 20.416 215.953 21.952C214.545 23.4453 213.841 25.6 213.841 28.416V48H204.881V12.544H213.841V16.96C215.036 15.424 216.55 14.2293 218.385 13.376C220.262 12.48 222.31 12.032 224.529 12.032ZM268.954 48L256.922 32.896V48H247.962V0.639999H256.922V27.584L268.826 12.544H280.474L264.858 30.336L280.602 48H268.954Z" fill="white"/>
</svg>
